<svg xmlns="http://www.w3.org/2000/svg" width="57" height="55" viewBox="0 0 57 55" fill="none"><path d="M6.36279 53.865H4.63953L5.30233 50.625H2.38605L1.72326 53.865H0L1.5907 45.9H3.31395L2.65116 49.005H5.56744L6.23023 45.9H7.95349L6.36279 53.865Z" fill="#303591"></path><path d="M9.80932 53.865H8.08606L9.67676 45.9H11.4L9.80932 53.865Z" fill="#303591"></path><path d="M16.0396 47.385C15.3768 47.385 14.8466 47.655 14.4489 48.195C13.9187 48.735 13.7861 49.41 13.7861 50.355C13.7861 51.03 13.9187 51.435 14.3163 51.84C14.5815 52.245 15.1117 52.38 15.6419 52.38C16.1721 52.38 16.5698 52.245 16.8349 51.975C17.1001 51.705 17.3652 51.435 17.4977 51.03H15.2442L15.5094 49.545H19.3535L18.4256 53.865H17.1001V53.055C16.7024 53.595 16.0396 54 15.1117 54C14.0512 54 13.2559 53.73 12.7256 53.055C12.1954 52.38 11.7977 51.57 11.7977 50.49C11.7977 49.815 11.9303 49.14 12.1954 48.465C12.4605 47.925 12.7256 47.385 13.1233 46.98C13.521 46.575 13.9187 46.305 14.4489 46.035C14.9791 45.765 15.5094 45.765 16.0396 45.765C16.5698 45.765 17.1001 45.9 17.4977 46.035C17.8954 46.17 18.2931 46.44 18.5582 46.575C18.8233 46.845 19.0884 47.115 19.221 47.385C19.3535 47.655 19.4861 47.925 19.4861 48.195L17.7628 48.735C17.6303 48.33 17.4977 48.06 17.2326 47.79C16.9675 47.52 16.5698 47.385 16.0396 47.385Z" fill="#303591"></path><path d="M26.2465 53.865H24.5232L25.186 50.625H22.2697L21.6069 53.865H19.8837L21.4744 45.9H23.1976L22.5348 49.005H25.4511L26.1139 45.9H27.8372L26.2465 53.865Z" fill="#303591"></path><path d="M34.8628 47.52H32.7419L31.4163 53.73H29.693L31.0186 47.52H28.7651L29.1628 45.765H35.393L34.8628 47.52Z" fill="#303591"></path><path d="M39.6349 53.865H34.7302L36.3209 45.9H41.2256L40.8279 47.52H37.6465L37.3814 49.005H40.2977L40.0325 50.625H37.1163L36.8512 52.11H40.0325L39.6349 53.865Z" fill="#303591"></path><path d="M45.6 45.765C46.1303 45.765 46.6605 45.9 47.0582 46.035C47.4559 46.17 47.8535 46.44 48.1186 46.71C48.3838 46.98 48.5163 47.25 48.7814 47.52C48.914 47.79 49.0466 48.06 49.0466 48.33L47.3233 48.87C47.1907 48.465 47.0582 48.195 46.7931 47.925C46.5279 47.655 46.1303 47.52 45.6 47.52C44.9372 47.52 44.407 47.79 44.0093 48.33C43.4791 48.87 43.3465 49.545 43.3465 50.355C43.3465 50.895 43.4791 51.435 43.8768 51.84C44.2745 52.245 44.6721 52.38 45.2024 52.38C45.9977 52.38 46.6605 51.975 47.0582 51.03L48.6489 51.705C48.5163 51.975 48.3838 52.245 48.2512 52.515C48.1186 52.785 47.8535 53.055 47.5884 53.325C47.3233 53.595 46.9256 53.73 46.5279 54C46.1303 54.135 45.6 54.27 45.0698 54.27C44.0093 54.27 43.214 53.865 42.5512 53.19C41.8884 52.515 41.6233 51.57 41.6233 50.625C41.6233 49.95 41.7559 49.275 42.021 48.6C42.2861 48.06 42.5512 47.52 42.9489 47.115C43.3466 46.71 43.7442 46.44 44.2745 46.17C44.5396 45.765 45.0698 45.765 45.6 45.765Z" fill="#303591"></path><path d="M55.4093 53.865H53.686L54.3488 50.625H51.4326L50.7698 53.865H49.0465L50.6372 45.9H52.3605L51.6977 49.005H54.614L55.2767 45.9H57L55.4093 53.865Z" fill="#303591"></path><path d="M20.9441 31.455C16.1721 30.105 14.3162 26.865 15.5093 22.005C15.6418 21.6 15.6418 21.195 15.6418 20.655C15.6418 17.82 13.3883 15.66 10.7372 15.66C7.95345 15.66 5.83252 17.955 5.83252 20.655C5.83252 22.95 7.42322 24.975 9.54415 25.515C14.3162 26.865 16.1721 30.105 14.8465 34.965C14.7139 35.37 14.7139 35.775 14.7139 36.315C14.7139 39.15 16.9674 41.31 19.6186 41.31C22.4023 41.31 24.5232 39.015 24.5232 36.315C24.6558 34.02 23.0651 31.995 20.9441 31.455ZM10.7372 22.95C9.54415 22.95 8.48368 21.87 8.48368 20.655C8.48368 19.44 9.54415 18.36 10.7372 18.36C11.9302 18.36 12.9907 19.44 12.9907 20.655C12.9907 21.87 12.0628 22.95 10.7372 22.95ZM19.6186 38.61C18.4255 38.61 17.3651 37.53 17.3651 36.315C17.3651 35.1 18.4255 34.02 19.6186 34.02C20.8116 34.02 21.8721 35.1 21.8721 36.315C21.8721 37.665 20.9441 38.61 19.6186 38.61Z" fill="#303591"></path><path d="M37.3813 0C36.0557 0 34.7301 0.54 33.9348 1.485C30.4883 4.995 26.7767 4.995 23.1976 1.485C22.2697 0.54 21.0767 0 19.6185 0C16.8348 0 14.7139 2.295 14.7139 4.995C14.7139 7.695 16.9674 9.99 19.6185 9.99C20.9441 9.99 22.2697 9.45 23.065 8.505C26.5115 4.995 30.2232 4.995 33.6697 8.505C33.6697 8.505 33.6697 8.505 33.8022 8.505C34.7301 9.45 35.9232 9.99 37.2487 9.99C40.0325 9.99 42.1534 7.695 42.1534 4.995C42.1534 2.295 40.165 0 37.3813 0ZM19.6185 7.425C18.4255 7.425 17.365 6.345 17.365 5.13C17.365 3.915 18.4255 2.835 19.6185 2.835C20.8115 2.835 21.872 3.915 21.872 5.13C21.872 6.345 20.9441 7.425 19.6185 7.425ZM37.3813 7.425C36.1883 7.425 35.1278 6.345 35.1278 5.13C35.1278 3.915 36.1883 2.835 37.3813 2.835C38.5743 2.835 39.6348 3.915 39.6348 5.13C39.6348 6.345 38.7069 7.425 37.3813 7.425Z" fill="#3887FE"></path><path d="M46.2627 15.66C43.479 15.66 41.3581 17.955 41.3581 20.655C41.3581 21.06 41.3581 21.6 41.4906 22.005C42.8162 26.865 40.9604 30.24 36.1883 31.455C34.0674 31.995 32.4767 34.02 32.4767 36.315C32.4767 39.15 34.7302 41.31 37.3813 41.31C40.0325 41.31 42.286 39.015 42.286 36.315C42.286 35.91 42.286 35.37 42.1534 34.965C40.9604 30.105 42.8162 26.865 47.4558 25.515C49.5767 24.975 51.1674 22.95 51.1674 20.655C51.1674 17.955 49.0465 15.66 46.2627 15.66ZM37.3813 38.61C36.1883 38.61 35.1278 37.53 35.1278 36.315C35.1278 35.1 36.1883 34.02 37.3813 34.02C38.5744 34.02 39.6348 35.1 39.6348 36.315C39.6348 37.665 38.7069 38.61 37.3813 38.61ZM46.2627 22.95C45.0697 22.95 44.0092 21.87 44.0092 20.655C44.0092 19.44 45.0697 18.36 46.2627 18.36C47.4558 18.36 48.5162 19.44 48.5162 20.655C48.5162 21.87 47.4558 22.95 46.2627 22.95Z" fill="#FF006C"></path><path d="M27.7045 10.26V19.17C27.7045 19.845 27.4394 20.385 26.9092 20.655L19.3534 25.11C19.2208 24.84 19.2208 24.435 19.2208 24.03V17.01C19.2208 16.335 19.3534 15.795 19.6185 15.255C19.8836 14.715 20.4138 14.31 20.9441 13.905L26.9092 10.395C27.0418 10.53 27.4394 10.395 27.7045 10.26Z" fill="#303591"></path><path d="M36.9837 26.595C36.7186 26.865 36.4534 27 36.1883 27.27L30.2232 30.78C29.1627 31.455 27.8372 31.455 26.7767 30.78L20.8116 27.27C20.5465 27.135 20.2814 26.865 20.0162 26.595L27.572 22.14C28.1023 21.87 28.7651 21.87 29.2953 22.14L36.9837 26.595Z" fill="#FF006C"></path><path d="M37.9116 17.145V24.165C37.9116 24.57 37.9116 24.84 37.779 25.245L30.2232 20.79C29.693 20.52 29.4279 19.845 29.4279 19.305V10.26C29.693 10.395 30.0906 10.53 30.3558 10.665L36.3209 14.175C36.8511 14.445 37.2488 14.985 37.5139 15.525C37.779 15.93 37.9116 16.605 37.9116 17.145Z" fill="#3887FE"></path></svg>