<svg xmlns="http://www.w3.org/2000/svg" width="50" height="51" viewBox="0 0 50 51" fill="none"><path d="M0 39.7H1.9C3.1 39.7 3.9 39.8 4.4 39.9C4.8 40 5.2 40.2 5.4 40.5C5.6 40.8 5.8 41.1 5.8 41.4C5.9 41.7 5.9 42.4 5.9 43.5V47.3C5.9 48.3 5.9 48.9 5.8 49.2C5.7 49.5 5.6 49.8 5.4 50C5.2 50.2 4.9 50.3 4.6 50.4C4.3 50.5 3.8 50.5 3.2 50.5H0V39.7ZM2.5 41.6V48.7C2.9 48.7 3.1 48.6 3.2 48.5C3.3 48.3 3.3 47.9 3.3 47.2V43C3.3 42.5 3.3 42.2 3.3 42.1C3.3 42 3.2 41.9 3.1 41.8C3 41.6 2.8 41.6 2.5 41.6Z" fill="#323232"></path><path d="M10.1 39.7V50.5H7.5V39.7H10.1Z" fill="#323232"></path><path d="M17.6 43.7H15.1V42.7C15.1 42.1 15.1 41.7 15 41.5C14.9 41.3 14.8 41.3 14.7 41.3C14.5 41.3 14.4 41.4 14.4 41.5C14.3 41.6 14.3 42 14.3 42.5V47.7C14.3 48.2 14.3 48.5 14.4 48.7C14.5 48.9 14.6 48.9 14.7 48.9C14.9 48.9 15 48.8 15.1 48.6C15.2 48.4 15.2 48.1 15.2 47.6V46.3H14.7V44.7H17.7V50.5H16L15.8 49.7C15.6 50 15.4 50.3 15.1 50.4C14.8 50.6 14.5 50.6 14.2 50.6C13.8 50.6 13.4 50.5 13 50.3C12.6 50.1 12.3 49.8 12.2 49.5C12 49.2 11.9 48.8 11.8 48.4C11.8 48 11.7 47.5 11.7 46.7V43.5C11.7 42.5 11.7 41.7 11.8 41.3C11.9 40.8 12.2 40.4 12.7 40C13.2 39.6 13.8 39.4 14.5 39.4C15.2 39.4 15.9 39.6 16.3 39.9C16.8 40.2 17.1 40.6 17.3 41.1C17.4 41.6 17.5 42.2 17.5 43.1V43.7H17.6Z" fill="#323232"></path><path d="M21.8 39.7V50.5H19.3V39.7H21.8Z" fill="#323232"></path><path d="M28.7 39.7V41.9H27.2V50.5H24.7V41.9H23.2V39.7H28.7Z" fill="#323232"></path><path d="M30 39.7H34.2V41.9H32.5V43.9H34.1V46H32.5V48.4H34.4V50.6H30V39.7Z" fill="#323232"></path><path d="M41.7001 44.4H39.2001V42.5C39.2001 42 39.2 41.6 39.1 41.5C39 41.4 38.9001 41.3 38.7001 41.3C38.5001 41.3 38.4 41.4 38.3 41.5C38.2 41.7 38.2001 42 38.2001 42.6V47.6C38.2001 48.1 38.2 48.5 38.3 48.6C38.4 48.8 38.5001 48.8 38.7001 48.8C38.9001 48.8 39 48.7 39.1 48.6C39.2 48.4 39.2001 48.1 39.2001 47.5V46.1H41.7001V46.5C41.7001 47.6 41.6 48.4 41.5 48.9C41.4 49.4 41 49.8 40.6 50.1C40.1 50.5 39.5 50.6 38.8 50.6C38.1 50.6 37.5 50.5 37 50.2C36.5 49.9 36.2 49.5 36 49C35.8 48.5 35.8 47.7 35.8 46.6V43.4C35.8 42.6 35.8001 42 35.9001 41.7C35.9001 41.3 36.1 40.9 36.3 40.6C36.5 40.2 36.9 40 37.3 39.8C37.7 39.6 38.2 39.5 38.8 39.5C39.5 39.5 40.2 39.7 40.6 40C41.1 40.3 41.4 40.7 41.6 41.2C41.8 41.7 41.8 42.4 41.8 43.4V44.4H41.7001Z" fill="#323232"></path><path d="M49.2 39.7V50.5H46.7V46H45.9V50.5H43.4V39.7H45.9V43.6H46.7V39.7H49.2Z" fill="#323232"></path><path d="M44.9 13.4C44.7 12.9 44.3 12.5 43.9 12.1C43.8 12 43.7 11.9 43.6 11.9L43.5 11.8C43.4 11.8 43.4 11.7 43.3 11.7C42.6 11.3 41.8 11.1 41 11.2C40.6 11.2 38 11.7 35.3 9.3C33.2 7.4 32.9 5.2 32.9 4.4C32.9 4.3 32.9 4.2 32.9 4.1C32.9 3.3 32.6 2.5 32.1 1.8C32 1.7 32 1.6 31.9 1.5C31.9 1.5 31.9 1.5 31.8 1.4C31.7 1.3 31.6 1.2 31.5 1.1C31.2 0.800004 30.8 0.600004 30.5 0.400004C28.9 -0.299996 27 0.100004 25.8 1.4C25.8 1.4 25.8 1.5 25.7 1.5C25.6 1.6 25.6 1.7 25.5 1.7C25.5 1.7 25.5 1.8 25.4 1.8C25.3 1.9 25.3 2 25.2 2.1C24.8 2.8 24.6 3.6 24.7 4.4C24.7 4.8 25.2 7.4 22.8 10.1C20.8 12.3 17.3 12.5 17.3 12.5C16.9 12.5 14.3 13 11.6 10.6C8.8 8.3 9.1 5.4 9.1 5.4C9.1 4.3 8.6 3.3 7.7 2.5C6 1.1 3.4 1.2 2 2.9C0.5 4.6 0.6 7.2 2.3 8.6C3.2 9.4 4.3 9.7 5.4 9.6C5.4 9.6 8.2 9 10.9 11.3C13.6 13.7 13.5 16.3 13.5 16.7C13.5 17.8 14 18.8 14.9 19.6C15.7 20.3 16.7 20.6 17.7 20.6C18.8 20.6 19.8 20.1 20.6 19.2C21.4 18.3 21.7 17.2 21.6 16.1C21.6 16 21.6 15.9 21.6 15.8C21.5 15 21.5 12.8 23.4 10.7C25.7 8.1 29 8.1 29 8.1C29 8.1 32.3 7.9 34.5 9.8C37.2 12.2 37.2 15.3 37.2 15.4C37.2 15.4 37.6 18.5 35.2 21.2C32.8 23.9 30 23.6 30 23.6C28.9 23.6 27.9 24.1 27.1 25C25.6 26.7 25.8 29.3 27.5 30.7C29.2 32.2 31.8 32 33.2 30.3C34 29.4 34.3 28.3 34.2 27.2C34.2 27.2 33.6 24.4 35.9 21.7C38.3 19 40.9 19.1 41.3 19.1C42.2 19.1 43.1 18.7 43.9 18.1C44 18 44.1 17.9 44.2 17.8C45.4 16.6 45.6 14.8 44.9 13.4Z" fill="url(#paint0_linear)"></path><path d="M47.8 30.6C46.2 32.2 43.6 32.2 42.1 30.6C40.5 29 40.5 26.4 42.1 24.9C43.7 23.3 46.3 23.3 47.8 24.9C49.4 26.5 49.4 29 47.8 30.6Z" fill="url(#paint1_linear)"></path><defs><linearGradient id="paint0_linear" x1="-12.6245" y1="15.8827" x2="48.2725" y2="15.8827" gradientUnits="userSpaceOnUse"><stop stop-color="#00FFFF"></stop><stop offset="0.5054" stop-color="#00ABFF"></stop><stop offset="1" stop-color="#0062FF"></stop></linearGradient><linearGradient id="paint1_linear" x1="53.6851" y1="27.7342" x2="39.0085" y2="27.7342" gradientUnits="userSpaceOnUse"><stop stop-color="#FFFF00"></stop><stop offset="0.5054" stop-color="#FFA100"></stop><stop offset="1" stop-color="#FF5100"></stop></linearGradient></defs></svg>