<svg xmlns="http://www.w3.org/2000/svg" width="74" height="60" viewBox="0 0 74 60" fill="none"><path d="M1 58.4C0.6 58.4 0.3 58.3 0.2 58.1C0 57.8 0 57.5 0 57.1L1.2 51.6C1.3 51.2 1.5 50.9 1.7 50.7C2 50.5 2.3 50.4 2.7 50.4H7.2C7.6 50.4 7.9 50.5 8 50.7C8.2 50.9 8.2 51.2 8.1 51.6L8 52.7H5.3L5.6 51.4H3.9L2.6 57.4H4.3L4.7 55.7H3.7L3.9 54.7H7.6L7 57.1C6.9 57.5 6.7 57.8 6.5 58C6.2 58.2 5.9 58.3 5.5 58.3H1V58.4Z" fill="#231F20"></path><path d="M14.2001 58.4H9.20006C8.80006 58.4 8.50006 58.3 8.40006 58.1C8.20006 57.9 8.20006 57.6 8.30006 57.2L8.80006 54.8C8.90006 54.5 9.00006 54.3 9.20006 54.1C9.40006 53.9 9.70006 53.8 10.0001 53.8H12.8001L13.0001 52.9H10.4001L10.6001 52H14.6001C14.9001 52 15.1001 52.1 15.3001 52.3C15.4001 52.5 15.5001 52.7 15.4001 53L14.2001 58.4ZM11.2001 54.7L10.6001 57.6H12.0001L12.6001 54.7H11.2001Z" fill="#231F20"></path><path d="M25.7001 58.4H23.2001L24.4001 52.9H23.1001L21.9001 58.4H19.4001L20.6001 52.9H19.3001L18.1001 58.4H15.6001L17.0001 52H26.1001C26.4001 52 26.6001 52.1 26.8001 52.3C26.9001 52.5 27.0001 52.7 26.9001 53L25.7001 58.4Z" fill="#231F20"></path><path d="M27.9001 53C28.0001 52.7 28.1001 52.5 28.3001 52.3C28.5001 52.1 28.8001 52 29.1001 52H33.4001C33.7001 52 33.9001 52.1 34.1001 52.3C34.2001 52.5 34.3001 52.7 34.2001 53L33.4001 56.6H29.6001L29.4001 57.5H33.2001L33.0001 58.4H28.0001C27.6001 58.4 27.3001 58.3 27.2001 58.1C27.0001 57.9 27.0001 57.6 27.1001 57.2L27.9001 53ZM30.4001 52.9L29.8001 55.8H31.1001L31.7001 52.9H30.4001Z" fill="#231F20"></path><path d="M40.3001 54.8C40.6001 54.8 40.8001 54.9 41.0001 55.1C41.1001 55.3 41.2001 55.5 41.1001 55.8L40.8001 57.2C40.7001 57.6 40.5001 57.9 40.3001 58.1C40.0001 58.3 39.7001 58.4 39.3001 58.4H35.5001C35.1001 58.4 34.8001 58.3 34.7001 58.1C34.5001 57.9 34.5001 57.6 34.6001 57.2L34.7001 56.6H37.2001L37.0001 57.6H38.3001L38.7001 55.7H36.2001C35.8001 55.7 35.5001 55.6 35.4001 55.4C35.2001 55.2 35.2001 54.9 35.3001 54.5L35.6001 53.1C35.7001 52.8 35.8001 52.6 36.0001 52.4C36.2001 52.2 36.5001 52.1 36.8001 52.1H41.1001C41.4001 52.1 41.6001 52.2 41.8001 52.4C41.9001 52.6 42.0001 52.8 41.9001 53.1L41.7001 54H39.0001L39.2001 53H37.9001L37.5001 54.9H40.3001V54.8Z" fill="#231F20"></path><path d="M50.8999 53.9C51.2999 53.9 51.5999 54 51.6999 54.2C51.8999 54.4 51.8999 54.7 51.7999 55.1L51.3999 57.1C51.2999 57.5 51.0999 57.8 50.8999 58C50.5999 58.2 50.2999 58.3 49.8999 58.3H45.3999C44.9999 58.3 44.6999 58.2 44.5999 58C44.4999 57.8 44.3999 57.5 44.3999 57.1L44.5999 56H47.2999L46.9999 57.3H48.6999L49.1999 54.8H46.0999C45.6999 54.8 45.3999 54.7 45.2999 54.5C45.0999 54.3 45.0999 54 45.1999 53.6L45.5999 51.6C45.6999 51.2 45.8999 50.9 46.0999 50.7C46.3999 50.5 46.6999 50.4 47.0999 50.4H51.5999C51.9999 50.4 52.2999 50.5 52.3999 50.7C52.5999 50.9 52.5999 51.2 52.4999 51.6L52.2999 52.7H49.5999L49.8999 51.4H48.1999L47.6999 53.9H50.8999Z" fill="#231F20"></path><path d="M59.2999 57.1C59.1999 57.5 58.9999 57.8 58.7999 58C58.4999 58.2 58.1999 58.3 57.7999 58.3H55.1999L54.8999 60H52.3999L54.0999 52H59.3999C59.6999 52 59.8999 52.1 60.0999 52.3C60.1999 52.5 60.2999 52.7 60.1999 53L59.2999 57.1ZM56.3999 52.9L55.3999 57.5H56.6999L57.6999 52.9H56.3999Z" fill="#231F20"></path><path d="M61 53C61.1 52.7 61.2 52.5 61.4 52.3C61.6 52.1 61.9 52 62.2 52H66.5C66.8 52 67 52.1 67.2 52.3C67.3 52.5 67.4 52.7 67.3 53L66.4 57.1C66.3 57.5 66.1 57.8 65.9 58C65.6 58.2 65.3 58.3 64.9 58.3H61.1C60.7 58.3 60.4 58.2 60.3 58C60.1 57.8 60.1 57.5 60.2 57.1L61 53ZM63.5 52.9L62.5 57.5H63.8L64.8 52.9H63.5Z" fill="#231F20"></path><path d="M69.4 58.4C69 58.4 68.7 58.3 68.6 58.1C68.4 57.9 68.4 57.6 68.5 57.2L69.4 52.9H68.2L68.4 52H69.6L69.9 50.4H72.4L72 52H73.2L73 52.9H71.8L70.8 57.5H72L71.8 58.4H69.4Z" fill="#231F20"></path><path fill-rule="evenodd" clip-rule="evenodd" d="M18.9999 17.8L18.8999 17.9C18.8999 17.8 18.9999 17.8 18.9999 17.8Z" fill="#CE1F27"></path><path fill-rule="evenodd" clip-rule="evenodd" d="M31.3999 11.1C31.4999 11.1 31.4999 11.1 31.5999 11.2C31.4999 11.2 31.4999 11.1 31.3999 11.1Z" fill="#CE1F27"></path><path fill-rule="evenodd" clip-rule="evenodd" d="M30.8999 11C30.9999 11 30.9999 11 31.0999 11.1C31.0999 11 30.9999 11 30.8999 11Z" fill="#CE1F27"></path><path d="M41.5999 21.7C41.9999 23 43.5999 23.3 44.5999 22.9C44.6999 24 45.8999 25 47.2999 24.7C46.3999 25.1 44.5999 25 44.2999 23.3C43.4999 23.5 41.7999 23.2 41.5999 21.7ZM52.1999 23.9C53.3999 25.3 59.5999 37.2 54.5999 36.6C51.6999 36.2 48.9999 28.9 42.7999 29.1C46.7999 27.9 50.3999 31.8 50.3999 31.8V31.7C51.9999 33.1 53.3999 34.7 54.7999 35.5C58.5999 37.7 53.3999 25.9 52.1999 23.9ZM18.6999 20.2C15.4999 27.4 22.3999 32.6 28.8999 28.1C24.0999 34.2 13.2999 28.7 18.6999 20.2ZM24.3999 37C23.1999 40.9 20.3999 42.9 18.1999 42.2C14.4999 41 14.7999 33.1 15.1999 29.9C15.2999 28.8 15.5999 27.6 15.8999 26.3C14.2999 48.1 22.9999 40.1 24.3999 37ZM20.1999 23.1C20.0999 23.8 20.7999 24.2 21.6999 24.2L23.7999 24.1L23.8999 25.4C23.9999 26.1 24.4999 26.8 25.3999 26.8C24.8999 27.1 23.4999 26.9 23.4999 25.1V24.5H21.5999C20.6999 24.6 19.8999 24.1 20.1999 23.1ZM30.6999 19.1C31.6999 19.4 34.9999 20.1 38.6999 18.1C38.6999 18.1 37.1999 20.6 31.5999 20.3C31.9999 21.9 31.3999 22.6 31.3999 22.6C31.5999 20.9 31.2999 20.3 30.4999 18.9C30.4999 19 30.5999 19 30.6999 19.1ZM44.2999 26.6C45.8999 28.1 49.8999 26.7 50.4999 24.3C48.1999 27.5 44.2999 26.6 44.2999 26.6ZM57.1999 29C56.1999 26.8 54.4999 23.6 52.2999 22.2C53.5999 24.2 54.7999 26.5 55.7999 28.8C56.6999 31.2 57.3999 33.6 57.2999 35.4C57.2999 36.7 56.8999 37.5 55.1999 37.6C51.7999 37.7 50.2999 32.7 46.1999 30.8C43.8999 29.7 40.7999 29.4 37.5999 29.7H37.3999C38.8999 29 40.4999 28.5 41.9999 28.2C42.0999 28.1 42.0999 28.1 42.2999 28C40.1999 27.8 34.0999 29.1 29.8999 31.8C24.6999 35.3 25.4999 42 20.3999 43.4C17.6999 44.1 16.5999 43.3 15.6999 41.7C14.1999 39 13.7999 35 14.0999 31C14.0999 31 11.1999 41.6 15.9999 45.1C18.7999 47.2 23.4999 45.4 25.4999 42.8C32.5999 46.6 40.4999 46.3 46.6999 43.1C48.9999 41.9 51.0999 40.3 52.8999 38.4C55.6999 40.6 58.1999 38.1 58.1999 38.1C59.5999 36.4 58.7999 32.5 57.1999 29ZM25.3999 18.9C26.0999 18.9 26.6999 19.3 26.6999 19.9C26.7999 20.4 26.7999 20.9 26.8999 21.5C27.4999 21.5 28.0999 21.5 28.7999 21.5C29.3999 21.5 29.9999 21.9 30.0999 22.5C30.1999 23.1 29.6999 23.6 28.9999 23.6C28.3999 23.6 27.6999 23.7 27.0999 23.7C27.0999 24.3 27.1999 24.8 27.1999 25.4C27.2999 26 26.6999 26.6 25.9999 26.6C25.1999 26.7 24.5999 26.2 24.4999 25.5C24.4999 24.9 24.3999 24.3 24.3999 23.8C23.6999 23.8 22.9999 23.8 22.2999 23.9C21.4999 23.9 20.7999 23.5 20.7999 22.8C20.7999 22.2 21.3999 21.6 22.1999 21.6C22.8999 21.6 23.5999 21.6 24.2999 21.6C24.2999 21.1 24.1999 20.5 24.1999 20C24.0999 19.4 24.5999 18.9 25.3999 18.9ZM50.3999 4.8C50.3999 4.8 51.1999 2.9 49.0999 1C49.0999 1 50.6999 3.1 49.8999 4.4C45.9999 1.6 41.3999 0 36.3999 0C23.7999 0 13.5999 10.2 13.5999 22.7C13.5999 24.8 13.8999 26.8 14.3999 28.8C15.2999 24.8 16.5999 18.6 20.5999 16.8C22.5999 15.9 25.0999 16.2 26.9999 17.1C26.9999 17.1 26.0999 15.9 23.4999 15.6C23.9999 14.4 24.6999 14.3 26.4999 14.6C28.8999 15 28.6999 14.9 29.8999 16.7C30.9999 17.2 31.9999 17.5 33.1999 17.6L33.3999 14.9H33.8999V14.8C33.2999 11.2 31.3999 11.2 29.6999 11.3C28.8999 11.3 28.1999 11.3 27.5999 11.2C26.6999 10.9 25.5999 10.1 25.5999 9.1C25.5999 8.3 26.1999 7.5 26.8999 7.1C28.3999 6.2 32.7999 7 34.4999 7.3C37.7999 7.9 41.5999 8.6 44.6999 8.2C47.1999 8.1 49.3999 7.2 50.3999 4.8ZM58.2999 29.1C58.8999 27.1 59.1999 25 59.1999 22.8C59.1999 17.6 57.4999 12.9 54.4999 9C53.5999 7.8 52.5999 6.7 51.4999 5.8C50.2999 8.4 47.6999 9.5 44.7999 9.8C41.3999 10.1 37.5999 9.4 34.1999 8.9C31.8999 8.5 29.8999 8.1 28.5999 8.2C28.1999 8.2 27.7999 8.3 27.4999 8.5C27.2999 8.6 27.0999 8.8 26.9999 9C26.5999 9.6 27.2999 10 27.7999 10.1C28.2999 10.2 28.9999 10.2 29.5999 10.2C31.8999 10.1 34.3999 10.2 35.1999 14.9L34.4999 15C34.8999 15.1 35.1999 15 35.5999 15L35.6999 15.5C35.6999 15.5 35.1999 15.8 34.3999 15.8C34.3999 15.8 35.0999 15.9 35.7999 15.8L35.8999 16.2C35.6999 16.3 35.1999 16.5 34.5999 16.4C34.5999 16.4 35.2999 16.5 35.9999 16.4L36.0999 16.9C35.8999 17 35.4999 17.1 34.8999 17.1C34.8999 17.1 35.4999 17.2 36.0999 17.1L36.1999 17.4C37.0999 17.2 37.9999 16.9 39.1999 16.4C39.3999 15.2 39.2999 15.2 41.4999 14.7C42.9999 14.3 43.8999 14.6 44.3999 15.8C44.3999 15.8 42.0999 16.1 40.9999 16.7C40.9999 16.7 43.3999 16.1 44.8999 16.1C46.1999 16.2 47.4999 16.7 48.7999 17.8C49.2999 18.3 49.7999 18.8 50.2999 19.3L51.5999 21C51.5999 21 50.7999 18.1 47.2999 15.9C47.2999 15.9 51.2999 16.8 52.8999 21.5C55.2999 22.9 56.9999 26.6 58.2999 29.1ZM24.7999 19.3C24.5999 19.4 24.3999 19.6 24.4999 19.9C24.4999 20.4 24.5999 20.9 24.5999 21.5H24.8999V21.2C24.8999 20.7 24.7999 20.1 24.7999 19.6C24.6999 19.5 24.6999 19.4 24.7999 19.3ZM21.3999 22C21.1999 22.1 20.9999 22.4 20.9999 22.7C20.9999 23.3 21.6999 23.6 22.1999 23.5C22.8999 23.5 23.5999 23.4 24.2999 23.4H24.5999V23.7C24.6999 24.3 24.6999 24.9 24.6999 25.4C24.6999 26 25.3999 26.3 25.8999 26.2C26.2999 26.2 26.5999 26 26.7999 25.7C26.5999 25.8 26.3999 25.9 26.1999 25.9C25.6999 25.9 25.0999 25.6 24.9999 25.1C24.9999 24.5 24.9999 24 24.9999 23.4V23.1H24.6999C23.9999 23.1 23.2999 23.2 22.5999 23.2C22.0999 23.2 21.3999 22.9 21.3999 22.3C21.3999 22.3 21.3999 22.2 21.3999 22ZM27.0999 23.3C27.6999 23.3 28.2999 23.3 28.9999 23.2C29.2999 23.2 29.6999 23 29.7999 22.7C29.6999 22.8 29.4999 22.8 29.2999 22.8C28.6999 22.8 27.9999 22.9 27.3999 22.9H26.9999L27.0999 23.3ZM46.1999 22.1C46.8999 22.1 47.6999 22.5 47.8999 23.2C48.0999 23.9 47.7999 24.5 46.9999 24.6C46.2999 24.7 45.3999 24.2 45.1999 23.5C44.9999 22.8 45.3999 22.2 46.1999 22.1ZM45.5999 22.7C45.4999 22.9 45.3999 23.2 45.4999 23.4C45.6999 24 46.3999 24.4 46.9999 24.3C47.3999 24.2 47.5999 24 47.6999 23.8C47.5999 23.9 47.3999 24.1 47.0999 24.1C46.4999 24.2 45.7999 23.8 45.5999 23.2C45.4999 23 45.4999 22.8 45.5999 22.7ZM42.2999 20.8C42.1999 21 42.0999 21.2 42.1999 21.5C42.4999 22.2 43.2999 22.6 43.9999 22.6C44.3999 22.6 44.7999 22.3 44.7999 22C44.6999 22.2 44.3999 22.3 44.0999 22.3C43.3999 22.4 42.4999 21.9 42.2999 21.2C42.1999 21.1 42.1999 21 42.2999 20.8ZM44.0999 18.6C43.9999 18.8 43.8999 19 43.9999 19.3C44.1999 19.9 44.9999 20.4 45.5999 20.4C45.9999 20.4 46.2999 20.2 46.3999 19.9C46.2999 20 45.9999 20.2 45.7999 20.2C45.0999 20.2 44.2999 19.7 44.0999 19.1C44.0999 18.8 43.9999 18.7 44.0999 18.6ZM46.9999 20.6C46.8999 20.8 46.7999 21 46.8999 21.3C47.0999 21.8 47.6999 22.3 48.2999 22.2C48.5999 22.2 48.7999 22 48.8999 21.7C48.7999 21.8 48.5999 21.9 48.3999 22C47.7999 22 47.1999 21.6 46.9999 21.1C46.9999 20.8 46.9999 20.7 46.9999 20.6ZM45.0999 21.4C45.3999 22.1 44.8999 22.7 44.0999 22.8C43.1999 22.9 42.2999 22.3 41.9999 21.6C41.6999 20.8 42.2999 20.2 43.0999 20.2C43.9999 20.2 44.7999 20.7 45.0999 21.4ZM44.7999 18C45.5999 18 46.3999 18.6 46.5999 19.3C46.7999 20 46.3999 20.6 45.6999 20.6C44.8999 20.6 43.9999 20.1 43.7999 19.3C43.4999 18.6 43.9999 18 44.7999 18ZM49.1999 21.2C49.3999 21.9 49.0999 22.4 48.3999 22.5C47.6999 22.5 46.8999 22.1 46.6999 21.4C46.4999 20.7 46.8999 20.2 47.5999 20.1C48.2999 20 48.9999 20.6 49.1999 21.2ZM31.8999 25.5C31.1999 25.7 31.2999 26.3 31.5999 26.4C31.9999 26.2 33.0999 25.9 33.9999 25.8C34.3999 25.8 34.7999 25.8 34.8999 26.1C35.0999 26.3 35.1999 26.7 34.9999 27.3C35.2999 26.6 35.3999 26 35.3999 25.7C35.2999 25.4 35.0999 25.3 34.6999 25.2C34.3999 25.1 33.8999 25.2 33.3999 25.2C32.8999 25.2 32.3999 25.3 31.8999 25.5ZM37.4999 24.4C36.7999 24.6 36.8999 25.2 37.1999 25.3C37.6999 25.1 38.7999 24.7 39.5999 24.7C39.9999 24.7 40.2999 24.8 40.4999 25C40.6999 25.2 40.7999 25.6 40.5999 26.2C40.8999 25.5 40.9999 24.9 40.9999 24.6C40.8999 24.3 40.6999 24.2 40.2999 24.1C39.8999 24.1 39.4999 24.1 38.9999 24.2C38.4999 24.2 37.8999 24.3 37.4999 24.4Z" fill="url(#paint0_radial)"></path><path fill-rule="evenodd" clip-rule="evenodd" d="M18.4 18.3L18.3 18.4L18.4 18.3Z" fill="#CE1F27"></path><path fill-rule="evenodd" clip-rule="evenodd" d="M18.9999 17.7L18.8999 17.8C18.8999 17.8 18.9999 17.8 18.9999 17.7Z" fill="#CE1F27"></path><path fill-rule="evenodd" clip-rule="evenodd" d="M31.3999 11.1C31.4999 11.1 31.4999 11.1 31.5999 11.2C31.4999 11.1 31.4999 11.1 31.3999 11.1Z" fill="#CE1F27"></path><path fill-rule="evenodd" clip-rule="evenodd" d="M30.8999 10.9C30.9999 10.9 30.9999 10.9 31.0999 11C31.0999 10.9 30.9999 10.9 30.8999 10.9Z" fill="#CE1F27"></path><defs><radialGradient id="paint0_radial" cx="0" cy="0" r="1" gradientUnits="userSpaceOnUse" gradientTransform="translate(52.0486 4.62443) scale(41.7456)"><stop stop-color="#FBED1D"></stop><stop offset="0.328" stop-color="#F05A2A"></stop><stop offset="0.6129" stop-color="#EA116E"></stop><stop offset="0.6742" stop-color="#E6116D"></stop><stop offset="0.7377" stop-color="#D9126B"></stop><stop offset="0.8022" stop-color="#C51368"></stop><stop offset="0.8674" stop-color="#A81562"></stop><stop offset="0.9333" stop-color="#82175C"></stop><stop offset="0.9987" stop-color="#551954"></stop><stop offset="1" stop-color="#541954"></stop></radialGradient></defs></svg>