<svg xmlns="http://www.w3.org/2000/svg" width="69" height="64" viewBox="0 0 69 64" fill="none"><path d="M2.83002 57.7993V60.8891H0.84375V51.8405H4.04386C6.36118 51.8405 7.46467 52.8336 7.46467 54.8199C7.46467 55.7027 7.13362 56.4751 6.47153 57.0269C5.80944 57.5786 4.92665 57.9096 3.82316 57.9096H2.83002V57.7993ZM2.83002 53.4957V56.2544H3.60247C4.70595 56.2544 5.25769 55.813 5.25769 54.8199C5.25769 53.9371 4.70595 53.3854 3.60247 53.3854H2.83002V53.4957Z" fill="#313231"></path><path d="M10.9958 58.7924C10.9958 59.0131 11.1061 59.2338 11.2165 59.4545C11.3268 59.5649 11.5475 59.5649 11.7682 59.5649C11.8786 59.5649 11.9889 59.5649 12.0993 59.5649C12.2096 59.5649 12.32 59.5649 12.4303 59.4545V60.8891C12.2096 60.9994 11.9889 60.9994 11.6579 60.9994C11.4372 60.9994 11.1061 61.1098 10.7751 61.1098C10.5544 61.1098 10.2234 61.1098 10.0027 60.9994C9.78196 60.8891 9.56126 60.7787 9.45092 60.6684C9.34057 60.4477 9.23022 60.3373 9.11987 60.1166C9.00952 59.8959 9.00952 59.5649 9.00952 59.3442V51.5094H10.9958V58.7924Z" fill="#313231"></path><path d="M19.1617 60.8891H17.2858V60.0063C16.8444 60.7787 16.1823 61.1098 15.4099 61.1098C14.7478 61.1098 14.3064 60.8891 13.9753 60.558C13.6443 60.227 13.4236 59.6752 13.4236 59.1235C13.4236 57.9096 14.196 57.1372 15.6306 56.9165L17.3961 56.6958C17.3961 56.0337 17.0651 55.5923 16.2926 55.5923C15.5202 55.5923 14.7478 55.813 14.0857 56.2544V54.7095C14.4167 54.5992 14.7478 54.4888 15.1892 54.3785C15.6306 54.2681 16.072 54.2681 16.5133 54.2681C18.3893 54.2681 19.2721 55.1509 19.2721 57.0269V60.8891H19.1617ZM17.2858 58.351V57.9096L16.072 58.02C15.4099 58.1303 15.0788 58.351 15.0788 58.9028C15.0788 59.1235 15.1892 59.3442 15.2995 59.4545C15.4099 59.5649 15.6306 59.6752 15.9616 59.6752C16.2926 59.6752 16.6237 59.5649 16.8444 59.2338C17.1754 59.0131 17.2858 58.6821 17.2858 58.351Z" fill="#313231"></path><path d="M27.4378 54.4888L24.7894 61.4408C24.1273 63.096 23.2446 63.9788 21.9204 63.9788C21.479 63.9788 21.0376 63.9788 20.7065 63.8685V62.3236C20.9272 62.4339 21.2583 62.5443 21.5893 62.5443C22.1411 62.5443 22.4721 62.3236 22.6928 61.7718L23.0239 60.9994L20.3755 54.4888H22.5825L23.7963 58.4614C23.9066 58.6821 23.9066 59.0131 24.017 59.3442C24.017 59.1235 24.1273 58.7924 24.2377 58.4614L25.4515 54.4888H27.4378Z" fill="#313231"></path><path d="M30.9689 57.7993V60.8891H28.9827V51.8405H32.1828C34.5001 51.8405 35.6036 52.8336 35.6036 54.7095C35.6036 55.5923 35.2725 56.3648 34.6104 56.9165C33.9484 57.4682 33.0656 57.7993 31.9621 57.7993H30.9689ZM30.9689 53.4957V56.2544H31.7414C32.8449 56.2544 33.3966 55.813 33.3966 54.8199C33.3966 53.9371 32.8449 53.3854 31.7414 53.3854H30.9689V53.4957Z" fill="#313231"></path><path d="M43.4383 60.8891H41.452V57.2476C41.452 56.2544 41.121 55.813 40.4589 55.813C40.1279 55.813 39.7968 55.9234 39.5761 56.2544C39.3554 56.4751 39.2451 56.8062 39.2451 57.2476V60.8891H37.2588V51.2887H39.2451V55.3716C39.6865 54.5992 40.3485 54.2681 41.2313 54.2681C42.6659 54.2681 43.4383 55.1509 43.4383 56.9165V60.8891Z" fill="#313231"></path><path d="M48.6247 61.1098C47.5212 61.1098 46.7487 60.7787 46.0866 60.227C45.4246 59.6752 45.2039 58.7924 45.2039 57.7993C45.2039 56.6958 45.5349 55.9234 46.197 55.2613C46.8591 54.7095 47.7419 54.3785 48.8454 54.3785C49.9488 54.3785 50.7213 54.7095 51.3834 55.2613C52.0455 55.813 52.2662 56.6958 52.2662 57.689C52.2662 58.7924 51.9351 59.5649 51.273 60.227C50.6109 60.7787 49.7281 61.1098 48.6247 61.1098ZM48.6247 55.813C48.1833 55.813 47.7419 55.9234 47.5212 56.2544C47.3005 56.5855 47.0798 57.0269 47.0798 57.5786C47.0798 58.7924 47.6315 59.4545 48.6247 59.4545C49.6178 59.4545 50.0592 58.7924 50.0592 57.5786C50.0592 56.4751 49.6178 55.813 48.6247 55.813Z" fill="#313231"></path><path d="M60.2113 60.8891H58.225V57.3579C58.225 56.3648 57.8939 55.813 57.1215 55.813C56.7905 55.813 56.4594 55.9234 56.2387 56.2544C56.018 56.4751 55.9077 56.8062 55.9077 57.2476V60.8891H53.9214V54.3785H55.9077V55.3716C56.3491 54.5992 57.1215 54.1578 58.0043 54.1578C59.4388 54.1578 60.1009 55.0406 60.1009 56.8062V60.8891H60.2113Z" fill="#313231"></path><path d="M68.1563 58.2407H63.9631C64.0734 59.2338 64.6252 59.6752 65.7287 59.6752C66.3907 59.6752 67.0528 59.4545 67.6046 59.1235V60.6684C67.0528 60.9994 66.2804 61.1098 65.2873 61.1098C64.2941 61.1098 63.4113 60.7787 62.8596 60.227C62.3079 59.6752 61.9768 58.7924 61.9768 57.7993C61.9768 56.6958 62.3079 55.9234 62.8596 55.2613C63.5217 54.5992 64.2941 54.2681 65.1769 54.2681C66.1701 54.2681 66.8321 54.5992 67.3839 55.1509C67.9356 55.7027 68.1563 56.4751 68.1563 57.4682V58.2407ZM66.2804 57.0269C66.2804 56.1441 65.9494 55.5923 65.1769 55.5923C64.8459 55.5923 64.6252 55.7027 64.2941 56.0337C64.0734 56.2544 63.9631 56.5855 63.8527 57.0269H66.2804Z" fill="#313231"></path><path fill-rule="evenodd" clip-rule="evenodd" d="M17.2857 32.1984C16.4029 34.1847 8.6785 30.5432 12.6511 28.1155C15.9615 25.9085 18.2788 30.3225 17.2857 32.1984ZM31.631 3.94917C32.2931 5.27335 36.707 3.28708 34.2794 1.41115C32.1828 -0.133727 30.9689 2.62499 31.631 3.94917ZM38.0312 0.969759C37.4795 1.5215 39.3554 3.17673 39.7968 1.63185C40.1279 0.418016 38.4726 0.418016 38.0312 0.969759ZM7.90606 24.6947C7.35432 25.3568 9.67164 27.3431 10.0027 25.6878C10.2234 24.2533 8.4578 24.0326 7.90606 24.6947ZM11.5476 15.5358C10.6648 16.4186 14.3063 19.729 14.858 17.0807C15.1891 14.8737 12.32 14.653 11.5476 15.5358ZM25.8929 0.307667C25.3411 0.969759 27.6585 2.95603 27.9895 1.3008C28.2102 -0.133727 26.4446 -0.244076 25.8929 0.307667ZM37.4795 6.04579C34.169 4.39057 33.3966 6.70789 32.0724 8.80451L26.1136 6.70789C19.4927 4.16987 15.7408 7.25963 17.065 13.9909L20.3755 29.219L19.1616 31.426C18.1685 33.1916 20.0444 34.7364 20.8168 34.9571C20.0444 34.295 19.8237 33.1916 20.3755 32.3088L33.5069 9.13556C34.2794 7.92172 35.0518 5.8251 37.1484 6.92858L48.9557 13.5495L37.4795 6.04579ZM29.5344 35.3985C28.8723 35.0675 28.2102 35.2882 27.7688 35.8399C27.4378 36.502 27.6585 37.1641 28.2102 37.6055C28.8723 37.9365 29.5344 37.7158 29.9758 37.1641C30.3068 36.502 30.0861 35.7296 29.5344 35.3985ZM41.5624 11.3425C41.3417 11.2322 41.121 11.3425 41.0106 11.4529C40.9003 11.6736 41.0106 11.8943 41.2313 12.0046L45.2039 14.2116C45.4246 14.3219 45.6453 14.2116 45.7556 14.1012C45.866 13.8805 45.7556 13.6598 45.6453 13.5495L41.5624 11.3425ZM40.0175 10.4597C39.7968 10.3494 39.5761 10.4597 39.4658 10.5701C39.3554 10.7908 39.4658 11.0115 39.6865 11.1218L39.7968 11.2322C40.0175 11.3425 40.2382 11.2322 40.3486 11.1218C40.4589 10.9011 40.3486 10.6804 40.2382 10.5701L40.0175 10.4597Z" fill="#CD2028"></path><path fill-rule="evenodd" clip-rule="evenodd" d="M44.3212 39.2607C44.7626 38.709 46.4178 38.709 46.0868 39.9228C45.6454 41.4677 43.7694 39.8125 44.3212 39.2607ZM56.0181 30.8742C55.4664 31.5363 57.7837 33.5226 58.1147 31.8674C58.3354 30.4328 56.5699 30.3225 56.0181 30.8742ZM54.2526 13.2185C54.8043 13.4392 56.1285 12.6667 55.4664 11.6736C54.5836 10.4597 53.7008 12.8874 54.2526 13.2185ZM33.8381 42.3505C29.7552 40.1435 25.7826 37.8262 21.8101 35.5089C22.0308 36.3917 22.5825 39.3711 23.1342 42.1298V42.2401C23.5756 44.0057 24.7895 45.1092 26.224 45.661C29.4241 46.7644 30.969 44.9989 33.2863 43.3436C34.9415 43.6747 35.6036 42.6815 35.8243 42.3505C35.2726 42.6815 34.5001 42.6815 33.8381 42.3505ZM36.5968 41.6884C39.4658 39.04 40.0176 38.5986 44.2108 35.1778L53.2594 27.012C56.7906 23.8119 57.3423 18.4048 52.818 15.9772C52.487 15.8668 52.3766 15.7565 51.9352 15.6461C51.6042 15.0944 50.7214 14.5426 49.8386 14.1013C50.8317 14.653 51.1628 15.9772 50.611 16.9703L36.5968 41.6884ZM23.9067 29.9915L36.9278 37.3848L47.9627 17.9635L35.0519 10.4597L23.9067 29.9915ZM57.563 15.2047C57.0113 15.7565 59.3286 17.8531 59.6596 16.1979C59.8803 14.653 58.1147 14.5426 57.563 15.2047Z" fill="#3F3E40"></path><path fill-rule="evenodd" clip-rule="evenodd" d="M19.603 20.8325C19.603 21.0532 19.4927 21.3842 19.4927 21.6049C19.4927 21.2739 19.603 21.0532 19.603 20.8325Z" fill="#CD2028"></path><path fill-rule="evenodd" clip-rule="evenodd" d="M48.9558 36.3917C49.7282 35.5089 52.5973 35.7296 52.2662 37.9366C51.8248 40.5849 48.073 37.2745 48.9558 36.3917Z" fill="#3F3E40"></path><path fill-rule="evenodd" clip-rule="evenodd" d="M35.1623 11.1218L35.0519 11.3425C34.8312 12.3357 34.6105 13.3288 34.5002 14.4323C33.7277 21.2739 36.2658 27.3431 40.3487 30.4328L47.411 18.0738L35.1623 11.1218Z" fill="url(#paint0_linear)"></path><path fill-rule="evenodd" clip-rule="evenodd" d="M31.8516 44.4471L26.0031 39.3711L33.2862 43.3436L32.8448 43.6747L31.8516 44.4471ZM51.9351 15.6461C51.9351 15.6461 52.4868 16.3082 51.7144 17.522L44.8728 29.6604L53.811 16.7496C53.2593 16.3082 52.8179 16.0875 52.8179 16.0875C52.4868 15.8668 52.3765 15.7565 51.9351 15.6461ZM30.4171 8.14242L25.01 21.1636L32.0723 8.80451L30.4171 8.14242Z" fill="#808184"></path><defs><linearGradient id="paint0_linear" x1="53.8454" y1="12.9793" x2="33.1024" y2="23.0296" gradientUnits="userSpaceOnUse"><stop stop-color="white"></stop><stop offset="0.0544045" stop-color="#E7E7E7"></stop><stop offset="0.2044" stop-color="#ABABAB"></stop><stop offset="0.3536" stop-color="#777777"></stop><stop offset="0.4985" stop-color="#4C4C4C"></stop><stop offset="0.6382" stop-color="#2B2B2B"></stop><stop offset="0.7712" stop-color="#131313"></stop><stop offset="0.8949" stop-color="#050505"></stop><stop offset="1"></stop></linearGradient></defs></svg>