<svg xmlns="http://www.w3.org/2000/svg" width="82" height="55" viewBox="0 0 82 55" fill="none"><path d="M10.6633 54.3755H8.63593V48.4202C8.63593 47.7867 8.63593 47.0264 8.76263 46.2662C8.76263 46.3929 8.63593 46.5196 8.63593 46.773C8.63593 46.8997 8.50922 47.0264 8.50922 47.1531C8.50922 47.2798 8.38251 47.4065 8.38251 47.5332C8.38251 47.6599 8.2558 47.7867 8.2558 47.7867L6.35518 51.4612H4.70798L2.80736 47.7867C2.80736 47.7867 2.80736 47.6599 2.68065 47.5332C2.68065 47.4065 2.55394 47.2798 2.55394 47.1531C2.55394 47.0264 2.42723 46.8997 2.42723 46.773C2.42723 46.6463 2.30052 46.3929 2.30052 46.2662C2.30052 46.6463 2.30052 47.1531 2.42723 47.5332C2.42723 47.9134 2.42723 48.1668 2.42723 48.4202V54.5022H0.399902V44.3655H3.18748L4.96139 47.9134C4.96139 48.0401 5.0881 48.1668 5.0881 48.2935C5.0881 48.4202 5.21481 48.5469 5.21481 48.6736C5.21481 48.8003 5.34152 48.927 5.34152 49.0537C5.46823 49.0537 5.46823 49.1804 5.46823 49.3072C5.46823 49.1804 5.46823 49.0537 5.59493 48.927C5.59493 48.8003 5.72164 48.6736 5.72164 48.5469C5.72164 48.4202 5.84835 48.2935 5.84835 48.1668C5.84835 48.0401 5.97506 47.9134 5.97506 47.7867L7.74897 44.2388H10.5365V54.3755H10.6633Z" fill="#313231"></path><path d="M16.7453 54.6289C15.605 54.6289 14.5913 54.2488 13.9578 53.6152C13.3242 52.9817 12.9441 51.968 12.9441 50.8277C12.9441 49.6873 13.3242 48.6736 13.9578 48.0401C14.718 47.4065 15.605 47.0264 16.872 47.0264C18.0124 47.0264 19.0261 47.4065 19.6596 48.0401C20.2932 48.6736 20.6733 49.5606 20.6733 50.7009C20.6733 51.8413 20.2932 52.855 19.6596 53.4885C18.8994 54.2488 18.0124 54.6289 16.7453 54.6289ZM16.872 48.6736C16.3652 48.6736 15.9851 48.8003 15.605 49.1804C15.3515 49.5606 15.2248 50.0674 15.2248 50.7009C15.2248 52.0947 15.7317 52.7283 16.872 52.7283C17.8857 52.7283 18.5192 51.968 18.5192 50.5742C18.3925 49.4339 17.8857 48.6736 16.872 48.6736Z" fill="#313231"></path><path d="M29.5427 54.3755H27.2619V53.2351C26.7551 54.122 25.9948 54.5022 25.1079 54.5022C23.4607 54.5022 22.5737 53.4885 22.5737 51.4612V47.1531H24.8545V51.3345C24.8545 52.3481 25.2346 52.855 26.1216 52.855C26.5017 52.855 26.8818 52.7283 27.1352 52.4748C27.3886 52.2214 27.5153 51.8413 27.5153 51.3345V47.1531H29.5427V54.3755Z" fill="#313231"></path><path d="M31.5701 54.2488V52.4748C31.9502 52.7283 32.3303 52.855 32.7104 52.9817C33.0906 53.1084 33.4707 53.1084 33.7241 53.1084C34.1042 53.1084 34.4844 53.1084 34.6111 52.9817C34.8645 52.855 34.9912 52.7283 34.9912 52.4748C34.9912 52.3481 34.9912 52.2214 34.8645 52.0947C34.7378 51.968 34.6111 51.968 34.4844 51.8413C34.3576 51.7146 34.1042 51.7146 33.9775 51.5879C33.7241 51.5879 33.5974 51.4612 33.4707 51.3345C33.2173 51.2078 32.9639 51.0811 32.7104 50.9543C32.457 50.8276 32.3303 50.7009 32.2036 50.5742C32.0769 50.4475 31.9502 50.1941 31.8235 49.9407C31.6968 49.6873 31.6968 49.4338 31.6968 49.1804C31.6968 48.8003 31.8235 48.4202 31.9502 48.1668C32.0769 47.9134 32.3303 47.6599 32.7104 47.4065C32.9639 47.2798 33.344 47.0264 33.7241 47.0264C34.1042 46.8997 34.4844 46.8997 34.8645 46.8997C35.2446 46.8997 35.498 46.8997 35.8781 47.0264C36.2583 47.0264 36.5117 47.1531 36.8918 47.2798V49.0537C36.6384 48.927 36.2583 48.8003 36.0049 48.6736C35.6247 48.5469 35.3713 48.5469 35.1179 48.5469C34.9912 48.5469 34.8645 48.5469 34.7378 48.5469C34.6111 48.5469 34.4844 48.5469 34.3576 48.6736C34.2309 48.6736 34.2309 48.8003 34.1042 48.927C34.1042 49.0537 33.9775 49.0537 33.9775 49.1804C33.9775 49.3071 33.9775 49.4339 34.1042 49.5606C34.2309 49.6873 34.3576 49.6873 34.4844 49.814C34.6111 49.9407 34.7378 49.9407 34.9912 49.9407C35.1179 49.9407 35.3713 50.0674 35.498 50.0674C35.7514 50.1941 36.0048 50.3208 36.2583 50.4475C36.5117 50.5742 36.7651 50.7009 36.8918 50.8276C37.0185 50.9543 37.1452 51.2078 37.2719 51.4612C37.3986 51.7146 37.3986 51.968 37.3986 52.2214C37.3986 52.6016 37.2719 52.9817 37.1452 53.3618C37.0185 53.6152 36.7651 53.8686 36.385 54.122C36.1316 54.3755 35.7514 54.5022 35.3713 54.5022C34.9912 54.6289 34.6111 54.6289 34.1042 54.6289C32.9639 54.6289 32.2036 54.5022 31.5701 54.2488Z" fill="#313231"></path><path d="M45.3813 51.4612H40.6931C40.8198 52.4748 41.4533 52.9817 42.7204 52.9817C43.4807 52.9817 44.2409 52.855 44.8745 52.4748V54.1221C44.2409 54.5022 43.354 54.6289 42.2136 54.6289C41.0732 54.6289 40.1863 54.2488 39.5527 53.6152C38.9192 52.9817 38.5391 52.0947 38.5391 50.9543C38.5391 49.814 38.9192 48.8003 39.5527 48.1668C40.1863 47.4065 41.0732 47.1531 42.0869 47.1531C43.1006 47.1531 43.9875 47.4065 44.4943 48.0401C45.1279 48.6736 45.3813 49.5606 45.3813 50.5742V51.4612ZM43.354 50.0674C43.354 49.0537 42.9738 48.5469 42.0869 48.5469C41.7068 48.5469 41.4533 48.6736 41.1999 49.0537C40.9465 49.3071 40.8198 49.6873 40.6931 50.1941H43.354V50.0674Z" fill="#313231"></path><path d="M54.7578 53.9953C53.9975 54.3755 53.1106 54.5022 51.8435 54.5022C50.323 54.5022 49.0559 53.9953 48.1689 53.1084C47.282 52.2214 46.7751 50.9543 46.7751 49.4338C46.7751 47.7866 47.282 46.5196 48.2956 45.5059C49.3093 44.4922 50.5764 43.9854 52.2236 43.9854C53.2373 43.9854 53.9975 44.1121 54.7578 44.3655V46.5196C54.1242 46.1394 53.364 45.886 52.477 45.886C51.5901 45.886 50.7031 46.1394 50.1963 46.773C49.5627 47.4065 49.3093 48.1668 49.3093 49.1804C49.3093 50.1941 49.5627 50.9543 50.1963 51.4612C50.7031 52.0947 51.4633 52.3481 52.477 52.3481C53.364 52.3481 54.1242 52.0947 54.8845 51.7146V53.9953H54.7578Z" fill="#313231"></path><path d="M59.0657 51.968C59.0657 52.2214 59.1924 52.4749 59.3191 52.6016C59.4458 52.7283 59.6992 52.855 59.9526 52.855C60.0793 52.855 60.206 52.855 60.3327 52.855C60.4594 52.855 60.5862 52.855 60.7129 52.7283V54.2488C60.4594 54.3755 60.206 54.3755 59.8259 54.3755C59.5725 54.3755 59.1924 54.5022 58.939 54.5022C58.6855 54.5022 58.4321 54.5022 58.1787 54.3755C57.9253 54.2488 57.6719 54.1221 57.5452 53.9954C57.4185 53.8686 57.2917 53.6152 57.165 53.3618C57.0383 53.1084 57.0383 52.855 57.0383 52.4749V43.732H59.1924V51.968H59.0657Z" fill="#313231"></path><path d="M63.2471 46.0127C62.8669 46.0127 62.6135 45.886 62.3601 45.6326C62.1067 45.3792 61.98 45.1258 61.98 44.8724C61.98 44.4922 62.1067 44.2388 62.3601 44.1121C62.6135 43.8587 62.8669 43.732 63.2471 43.732C63.6272 43.732 63.8806 43.8587 64.134 44.1121C64.3874 44.3655 64.5141 44.619 64.5141 44.8724C64.5141 45.2525 64.3874 45.5059 64.134 45.7593C63.8806 46.0127 63.6272 46.0127 63.2471 46.0127ZM64.2607 51.968C64.2607 52.2214 64.3874 52.4749 64.5141 52.6016C64.6408 52.7283 64.8943 52.855 65.1477 52.855C65.2744 52.855 65.4011 52.855 65.5278 52.855C65.6545 52.855 65.7812 52.855 65.9079 52.7283V54.2488C65.6545 54.3755 65.4011 54.3755 65.021 54.3755C64.7676 54.3755 64.3874 54.5022 64.134 54.5022C63.8806 54.5022 63.6272 54.5022 63.3738 54.3755C63.1204 54.2488 62.8669 54.1221 62.7402 53.9954C62.6135 53.8686 62.4868 53.6152 62.3601 53.3618C62.2334 53.1084 62.2334 52.855 62.2334 52.4749V47.1531H64.3874V51.968H64.2607Z" fill="#313231"></path><path d="M72.7502 54.122C72.2434 54.3755 71.4831 54.5022 70.5962 54.5022C69.4558 54.5022 68.5688 54.122 67.9353 53.4885C67.3018 52.855 66.9216 51.968 66.9216 50.8276C66.9216 49.5606 67.3018 48.6736 68.062 47.9134C68.8223 47.1531 69.8359 46.8997 70.9763 46.8997C71.8632 46.8997 72.4968 47.0264 72.8769 47.2798V49.1804C72.3701 48.8003 71.8632 48.6736 71.3564 48.6736C70.7229 48.6736 70.216 48.8003 69.8359 49.1804C69.4558 49.5606 69.3291 50.0674 69.3291 50.7009C69.3291 51.3345 69.4558 51.8413 69.8359 52.2214C70.216 52.6016 70.7229 52.7283 71.3564 52.7283C71.8632 52.7283 72.4968 52.6016 73.0036 52.2214V54.122H72.7502Z" fill="#313231"></path><path d="M81.9999 54.3755H79.3391L77.0583 50.8276V54.3755H74.7776V43.732H77.0583V50.5742L79.2124 47.2798H81.8732L79.3391 50.7009L81.9999 54.3755Z" fill="#313231"></path><path fill-rule="evenodd" clip-rule="evenodd" d="M41.8334 6.0997C34.8645 9.77423 28.4023 15.096 31.1899 23.332C28.9092 21.6848 28.7825 18.3904 29.7961 15.8562C32.457 10.1544 41.8334 6.0997 41.8334 6.0997ZM46.6483 3.81895C52.0968 4.5792 52.6036 7.11336 50.9564 8.38044C41.4533 15.7295 48.4222 23.5854 35.498 25.2326C35.498 25.2326 43.734 26.6264 47.0284 18.137C47.0284 18.137 48.8023 12.5618 50.8297 11.0413C50.8297 11.0413 51.4632 9.90094 52.857 9.14069C53.744 8.63386 56.4048 8.88727 56.0247 7.7469C55.7713 6.60653 53.4905 5.21274 51.0831 4.32578C49.5626 3.81895 47.7887 3.43883 46.6483 3.81895ZM34.9912 28.6537C37.9054 29.5407 40.8197 29.6674 43.734 28.4003C46.0148 27.3867 48.0421 25.7394 49.816 24.0922C50.0694 23.8388 50.4495 23.5854 50.703 23.2053C50.1961 20.6711 47.7887 22.6985 47.2818 23.8388C43.2272 28.9071 38.2856 29.1606 34.9912 28.6537Z" fill="#E6DBEC"></path><path fill-rule="evenodd" clip-rule="evenodd" d="M40.8197 0.271118C43.9874 0.271118 47.0284 1.03137 49.5625 2.55186L48.929 2.42516C46.9017 2.04503 44.6209 2.55186 42.5936 3.1854C40.1861 3.94565 37.9054 5.21273 35.7514 6.60652C32.9638 8.50714 29.0358 11.4214 27.3886 15.2227C25.488 19.6575 27.1352 24.4724 30.3029 27.0065C28.7824 28.6537 29.0358 29.7941 30.5563 30.9345C31.9501 31.9481 34.7377 32.7084 37.3986 33.2152C39.5526 33.5953 40.693 34.4823 41.1998 35.3693C41.7066 36.3829 41.1998 37.5233 40.3129 38.0301C30.1762 37.7767 21.9402 29.414 21.9402 19.2773C21.9402 13.0686 24.9812 7.62019 29.5427 4.19907C32.5837 1.79161 36.6383 0.271118 40.8197 0.271118ZM34.2309 9.90093C38.7924 5.97298 45.1278 2.93199 48.8023 3.1854C41.3265 1.66491 24.6011 13.8289 28.6557 20.291C27.7688 17.25 30.0495 13.5755 33.5973 10.4078L34.2309 9.90093ZM36.3849 40.8177C36.3849 40.8177 41.3265 40.4376 43.4806 37.65C52.3501 36.2562 59.1924 28.527 59.1924 19.2773C59.1924 18.7705 59.1924 18.137 59.0657 17.6301V17.7568C59.0657 17.6301 59.0657 17.5034 59.0657 17.3767C51.8433 19.0239 47.6619 34.609 32.457 28.1469C32.0768 28.0202 31.8234 27.8935 31.4433 27.6401C30.4296 28.527 30.5563 29.2873 31.3166 29.7941C32.5837 30.6811 35.1178 31.3146 37.652 31.8214C40.1861 32.3283 41.5799 33.3419 42.2135 34.609C44.2408 38.1568 38.9191 40.1842 36.3849 40.8177ZM41.4532 11.168C41.9601 11.4214 42.3402 11.8016 42.4669 12.3084C42.4669 12.5618 42.4669 12.9419 42.4669 13.322C44.4942 14.4624 46.5216 15.6028 48.4222 16.9966C49.6893 13.8289 50.7029 10.6612 53.8706 9.52081C55.1377 9.14068 58.1787 9.01397 56.1514 6.85994C54.8843 5.46615 52.6035 3.94565 50.7029 3.43882C53.8706 3.81894 57.2917 5.97298 58.4321 8.12702C58.9389 9.14068 58.9389 10.2811 58.3054 10.5345C57.9253 10.7879 55.898 10.6612 55.1377 10.7879C53.1104 11.0413 52.4768 12.4351 51.7166 13.9556C51.2098 15.096 50.5762 16.2363 50.0694 17.5034C49.5625 18.7705 48.929 20.0376 48.2955 21.3047C47.4085 23.0786 46.2681 24.7258 44.4942 25.7394C43.1004 26.6264 41.5799 27.0065 40.0594 27.1332C36.1315 27.3866 31.8234 25.9929 29.5427 22.5717C32.2035 25.3593 37.3986 26.8798 41.5799 25.3593C45.2545 23.9655 46.775 20.9245 48.042 17.8835C46.1414 16.4897 44.1141 15.2227 42.0868 14.0823C41.7066 14.5891 40.5663 16.363 40.1861 16.8699C39.806 17.3767 39.4259 18.0102 39.0458 18.6438C38.5389 19.404 37.9054 19.9109 37.1452 20.291C36.5116 20.5444 35.8781 20.5444 35.2445 20.4177C34.611 21.1779 33.724 23.5854 33.724 24.2189C33.724 24.3456 33.2172 24.3457 33.3439 23.9655C33.3439 23.332 34.3576 20.9245 34.8644 20.1643C34.4843 19.7842 34.2309 19.2773 34.2309 18.7705C34.2309 18.137 34.4843 17.3767 34.9911 16.7432C35.3712 16.2363 35.7514 15.7295 36.1315 15.2227C36.5116 14.7158 37.7787 12.9419 38.1588 12.5618L38.2855 12.4351C36.765 11.8016 35.3712 11.168 33.724 10.6612C35.8781 10.9146 37.1452 11.168 38.9191 11.6748C39.1725 11.5481 39.4259 11.4214 39.6793 11.2947C40.3129 10.9146 40.9464 10.9146 41.4532 11.168ZM39.4259 13.8289C39.806 13.9556 39.9327 14.5891 39.5526 14.9693C39.2992 15.3494 38.9191 15.8562 38.6657 16.363C38.2855 16.7432 38.0321 17.25 37.652 17.7568C37.2719 18.2637 36.6383 18.5171 36.1315 18.3904C35.7514 18.137 35.6247 17.5034 36.0048 16.9966C36.3849 16.4897 36.6383 16.1096 37.0184 15.6028C37.3986 15.2227 37.652 14.7158 37.9054 14.3357C38.4122 13.9556 39.0458 13.7022 39.4259 13.8289ZM52.3501 21.1779C54.6309 14.9693 57.9253 17.25 57.7986 14.4624C57.6719 12.4351 55.2644 13.4488 53.8706 14.8425C51.5899 17.1233 52.7302 18.8972 48.8023 21.8115C52.0967 18.5171 51.4632 15.096 53.3638 13.5755C54.8843 12.3084 56.1514 12.4351 57.9253 11.9283C59.8259 11.4214 59.5725 10.0276 59.1924 9.14068C60.5862 10.9146 60.206 14.209 58.9389 15.6028C57.6719 17.25 54.7576 17.25 52.3501 21.1779Z" fill="url(#paint0_linear)"></path><defs><linearGradient id="paint0_linear" x1="21.896" y1="20.5547" x2="60.145" y2="20.5547" gradientUnits="userSpaceOnUse"><stop stop-color="#DB009B"></stop><stop offset="1" stop-color="#5153A2"></stop></linearGradient></defs></svg>