<svg xmlns="http://www.w3.org/2000/svg" width="60" height="56" viewBox="0 0 60 56" fill="none"><path d="M42.8486 11.7977C42.0187 11.7977 41.4654 11.2444 41.4654 10.4145V6.67991C35.2411 3.63692 22.101 3.91356 18.643 8.20141C14.7701 13.0425 13.8019 29.2257 18.643 33.0986C23.4841 37.1098 38.6991 36.9715 43.5402 33.0986C47.5514 29.9173 47.9664 18.2986 45.615 11.6594H42.8486V11.7977Z" fill="url(#paint0_linear)"></path><path d="M41.4655 0.732246H39.8057C38.9758 0.732246 38.4225 1.42384 38.4225 2.11542V3.77524C38.4225 4.19019 38.6991 4.46683 39.1141 4.46683H40.7739C41.6038 4.46683 42.1571 3.77524 42.1571 3.08365V1.42384C42.1571 1.00888 41.8804 0.732246 41.4655 0.732246Z" fill="url(#paint1_linear)"></path><path d="M53.499 0.317291H51.8392C51.0093 0.317291 50.4561 1.00888 50.4561 1.70047V3.36028C50.4561 3.77524 50.7327 4.05187 51.1476 4.05187H52.8075C53.6374 4.05187 54.1906 3.36028 54.1906 2.66869V1.00888C54.0523 0.593927 53.7757 0.317291 53.499 0.317291Z" fill="url(#paint2_linear)"></path><path d="M51.9775 10.1379H49.7645C48.6579 10.1379 47.828 10.9678 47.828 12.0743V14.2874C47.828 14.7023 48.243 15.1173 48.6579 15.1173H50.871C51.9775 15.1173 52.8074 14.2874 52.8074 13.1808V10.9678C52.8074 10.5528 52.3925 10.1379 51.9775 10.1379Z" fill="url(#paint3_linear)"></path><path d="M47.9663 3.77523H44.9233C43.5401 3.77523 42.2953 4.88177 42.2953 6.40327V9.44626C42.2953 10.1378 42.8486 10.5528 43.4018 10.5528H46.4448C47.828 10.5528 49.0729 9.44626 49.0729 7.92476V4.88177C49.2112 4.19018 48.6579 3.77523 47.9663 3.77523Z" fill="url(#paint4_linear)"></path><path d="M35.1028 7.37151L31.9215 18.9902L37.0393 19.8201C37.8692 19.9584 38.1458 20.9266 37.5925 21.4799L26.5271 33.6519L29.985 22.5865L24.314 21.6182C23.4841 21.4799 23.2075 20.5117 23.7607 19.9584L35.1028 7.37151Z" fill="white"></path><path d="M7.02435 45.2706H4.39631V53.0164H3.28977V45.2706H0.800049V44.164H7.02435V45.2706Z" fill="#212121"></path><path d="M13.5253 50.25H8.26925C8.40757 51.4948 9.37579 52.1864 10.4823 52.1864C11.3122 52.1864 11.8655 51.9098 12.2805 51.2182H13.387C12.8337 52.4631 11.8655 53.1547 10.4823 53.1547C8.54589 53.1547 7.30103 51.7715 7.30103 49.835C7.30103 47.8986 8.6842 46.5154 10.4823 46.5154C12.2805 46.5154 13.6636 47.8986 13.6636 49.835C13.5253 50.1117 13.5253 50.1117 13.5253 50.25ZM8.40757 49.4201H12.5571C12.4188 48.4519 11.7272 47.622 10.4823 47.622C9.37579 47.622 8.54589 48.3135 8.40757 49.4201Z" fill="#212121"></path><path d="M15.0468 49.835C15.0468 47.8986 16.4299 46.5154 18.2281 46.5154C19.7496 46.5154 20.8561 47.4836 21.2711 49.0051H20.1645C19.8879 48.0369 19.058 47.4836 18.2281 47.4836C16.9832 47.4836 16.1533 48.4519 16.1533 49.835C16.1533 51.2182 17.1215 52.1864 18.2281 52.1864C19.1963 52.1864 19.8879 51.7715 20.1645 50.6649H21.2711C20.8561 52.1864 19.7496 53.1547 18.2281 53.1547C16.2916 53.1547 15.0468 51.7715 15.0468 49.835Z" fill="#212121"></path><path d="M28.8786 49.4201V53.0163H27.772V49.6967C27.772 48.3135 27.2187 47.622 26.1122 47.622C25.0057 47.622 24.1758 48.5902 24.1758 49.835V53.0163H23.0692V43.7491H24.1758V47.4836C24.729 46.792 25.4206 46.5154 26.3888 46.5154C27.772 46.6537 28.8786 47.622 28.8786 49.4201Z" fill="#212121"></path><path d="M35.9328 51.9098V53.0164H31.0917V44.164H32.1982V51.9098H35.9328Z" fill="#212121"></path><path d="M37.0393 49.835C37.0393 47.8986 38.4225 46.5154 40.3589 46.5154C42.2954 46.5154 43.6786 47.8986 43.6786 49.835C43.6786 51.7715 42.2954 53.1547 40.3589 53.1547C38.4225 53.1547 37.0393 51.7715 37.0393 49.835ZM42.572 49.835C42.572 48.4519 41.6038 47.4836 40.3589 47.4836C39.1141 47.4836 38.1458 48.4519 38.1458 49.835C38.1458 51.0799 39.1141 52.1864 40.3589 52.1864C41.6038 52.1864 42.572 51.2182 42.572 49.835Z" fill="#212121"></path><path d="M51.5627 46.792V52.4631C51.5627 54.5378 50.3178 55.7827 48.3814 55.7827C46.7216 55.7827 45.7533 54.9528 45.4767 53.7079H46.4449C46.7216 54.3995 47.4132 54.8145 48.3814 54.8145C49.6262 54.8145 50.5945 54.1229 50.5945 52.6014V52.1864C50.0412 52.7397 49.2113 53.1547 48.3814 53.1547C46.5833 53.1547 45.2001 51.7715 45.2001 49.9734C45.2001 48.1752 46.5833 46.792 48.3814 46.792C49.3496 46.792 50.1795 47.207 50.7328 47.7603L50.8711 46.9304H51.5627V46.792ZM50.5945 49.835C50.5945 48.5902 49.6262 47.6219 48.3814 47.6219C46.9982 47.6219 46.1683 48.5902 46.1683 49.835C46.1683 51.0799 46.9982 52.0481 48.3814 52.0481C49.6262 52.0481 50.5945 51.0799 50.5945 49.835Z" fill="#212121"></path><path d="M53.3608 49.835C53.3608 47.8986 54.744 46.5154 56.6805 46.5154C58.6169 46.5154 60.0001 47.8986 60.0001 49.835C60.0001 51.7715 58.6169 53.1547 56.6805 53.1547C54.744 53.1547 53.3608 51.7715 53.3608 49.835ZM58.8936 49.835C58.8936 48.4519 57.9253 47.4836 56.6805 47.4836C55.4356 47.4836 54.4674 48.4519 54.4674 49.835C54.4674 51.0799 55.4356 52.1864 56.6805 52.1864C57.9253 52.1864 58.8936 51.2182 58.8936 49.835Z" fill="#212121"></path><defs><linearGradient id="paint0_linear" x1="31.2799" y1="4.64139" x2="31.2799" y2="32.4901" gradientUnits="userSpaceOnUse"><stop stop-color="#81E4FB"></stop><stop offset="1" stop-color="#2F5291"></stop></linearGradient><linearGradient id="paint1_linear" x1="40.2895" y1="4.64124" x2="40.2895" y2="32.4901" gradientUnits="userSpaceOnUse"><stop stop-color="#81E4FB"></stop><stop offset="1" stop-color="#2F5291"></stop></linearGradient><linearGradient id="paint2_linear" x1="52.1935" y1="4.64124" x2="52.1935" y2="32.4901" gradientUnits="userSpaceOnUse"><stop stop-color="#81E4FB"></stop><stop offset="1" stop-color="#2F5291"></stop></linearGradient><linearGradient id="paint3_linear" x1="50.3032" y1="4.64125" x2="50.3032" y2="32.4901" gradientUnits="userSpaceOnUse"><stop stop-color="#81E4FB"></stop><stop offset="1" stop-color="#2F5291"></stop></linearGradient><linearGradient id="paint4_linear" x1="45.7254" y1="4.64124" x2="45.7254" y2="32.4899" gradientUnits="userSpaceOnUse"><stop stop-color="#81E4FB"></stop><stop offset="1" stop-color="#2F5291"></stop></linearGradient></defs></svg>