<svg xmlns="http://www.w3.org/2000/svg" width="86" height="56" viewBox="0 0 86 56" fill="none"><path d="M5.40127 55.1204H0.5V49.2388H5.40127C5.83694 49.2388 6.38153 49.3478 6.70828 49.6745C7.14395 49.8924 7.4707 50.328 7.68854 50.7637C8.01529 51.1994 8.1242 51.635 8.1242 52.1796C8.1242 52.7242 8.01529 53.1599 7.68854 53.7044C7.4707 54.1401 7.14395 54.4669 6.70828 54.7936C6.27261 55.0115 5.83694 55.1204 5.40127 55.1204ZM5.18344 53.2688C5.40127 53.2688 5.72803 53.1599 5.94586 52.942C6.16369 52.7242 6.27261 52.5064 6.27261 52.1796C6.27261 51.8529 6.16369 51.635 5.94586 51.4172C5.72803 51.1994 5.51019 51.0904 5.18344 51.0904H2.35159V53.2688H5.18344Z" fill="#323232"></path><path d="M10.9561 55.1204H9.10449V49.2388H10.9561V55.1204Z" fill="#323232"></path><path d="M15.8573 55.2293C14.7681 55.2293 13.7879 55.0115 13.1344 54.5758C12.3719 54.0312 11.9363 53.3777 11.9363 52.2885V51.9618C11.9363 50.9815 12.3719 50.2191 13.1344 49.6745C13.7879 49.2388 14.7681 49.021 15.8573 49.021C16.9465 49.021 17.7089 49.021 18.3624 49.1299L19.3426 49.2388V51.0904L18.6891 50.9815C18.2535 50.9815 17.8178 50.8726 17.2732 50.8726C16.7286 50.8726 16.1841 50.7637 15.7484 50.7637C15.2038 50.7637 14.7681 50.7637 14.4414 50.8726C14.0057 50.9815 13.679 51.3083 13.679 51.8529V52.0707C13.679 52.5064 13.8968 52.8331 14.4414 53.0509C14.7681 53.1599 15.2038 53.1599 15.7484 53.1599C16.293 53.1599 16.7286 53.1599 17.0554 53.0509L17.6 52.942V51.8529H19.4516V54.5758L18.907 54.6847C18.5802 54.7936 18.1446 54.7936 17.6 54.9025C17.1643 55.2293 16.5108 55.2293 15.8573 55.2293Z" fill="#323232"></path><path d="M22.6101 55.1204H20.7585V49.2388H22.6101V55.1204Z" fill="#323232"></path><path d="M28.056 55.1204H26.2044V51.0904H23.4814V49.2388H30.7789V51.0904H28.056V55.1204Z" fill="#323232"></path><path d="M39.0566 55.1204H36.9872L36.4426 54.0312H33.0662L32.5216 55.1204H30.4521L33.6107 49.2388H35.898L39.0566 55.1204ZM35.5713 52.3974L34.6999 50.8726L33.9375 52.3974H35.5713Z" fill="#323232"></path><path d="M45.9185 55.1204H39.8191V49.2388H41.6707V53.2688H45.9185V55.1204Z" fill="#323232"></path><path d="M50.3841 55.2293C49.6217 55.2293 48.8593 55.2293 48.0968 55.1204C47.5522 55.0115 47.1166 55.0115 46.7898 55.0115V53.2688C47.1166 53.3777 47.4433 53.3777 47.9879 53.4866C48.8592 53.5955 49.8395 53.7044 50.7108 53.7044C51.3643 53.7044 51.6911 53.5955 51.6911 53.4866C51.6911 53.3777 51.5822 53.2688 51.2554 53.1599C50.9287 53.0509 50.493 53.0509 50.0573 52.942H49.7306C49.4038 52.942 48.9682 52.8331 48.6414 52.8331C48.3147 52.7242 47.9879 52.7242 47.6612 52.5064C47.3344 52.3974 47.1166 52.1796 46.8987 51.9618C46.6809 51.7439 46.6809 51.4172 46.6809 50.9815C46.6809 50.5458 46.7898 50.2191 47.0077 49.8923C47.2255 49.6745 47.5522 49.4567 47.9879 49.3478C48.4236 49.2388 48.8592 49.1299 49.2949 49.1299C49.5128 49.1299 49.7306 49.1299 49.9484 49.1299C51.0376 49.1299 52.1268 49.2388 53.4338 49.4567V51.1994C53.107 51.0904 52.7803 51.0904 52.2357 50.9815C51.1465 50.8726 50.3841 50.7637 49.7306 50.7637C49.5128 50.7637 49.186 50.7637 48.9682 50.7637C48.7503 50.7637 48.6414 50.8726 48.6414 50.9815C48.6414 51.0904 48.7503 51.1994 48.9682 51.1994C49.186 51.1994 49.5128 51.3083 49.9484 51.3083C50.7108 51.4172 51.3643 51.5261 51.8 51.5261C52.5624 51.635 53.2159 51.9618 53.5427 52.3974C53.7605 52.6153 53.7605 52.942 53.7605 53.3777C53.7605 53.8134 53.6516 54.1401 53.4338 54.4669C53.2159 54.6847 52.8892 54.9025 52.4535 55.0115C52.0179 55.1204 51.5822 55.2293 51.1465 55.2293C50.8198 55.2293 50.6019 55.2293 50.3841 55.2293Z" fill="#8429AA"></path><path d="M58.9886 55.1204H57.137V51.0904H54.4141V49.2388H61.7115V51.0904H58.9886V55.1204Z" fill="#8429AA"></path><path d="M66.1771 55.2293C65.0879 55.2293 64.2166 55.0115 63.4542 54.5758C62.6917 54.1401 62.365 53.3777 62.365 52.2885V51.9618C62.365 50.9815 62.6917 50.2191 63.4542 49.6745C64.1077 49.2388 64.979 49.021 66.1771 49.021C67.2663 49.021 68.2465 49.2388 68.9 49.6745C69.6624 50.1102 69.9892 50.8726 69.9892 51.9618V52.2885C69.9892 53.2688 69.6624 54.0312 68.9 54.5758C68.2465 55.0115 67.3752 55.2293 66.1771 55.2293ZM66.1771 53.3777C66.7217 53.3777 67.1573 53.2688 67.4841 53.1599C67.9198 52.942 68.1376 52.7242 68.1376 52.2885V52.0707C68.1376 51.635 67.9198 51.3083 67.4841 51.1994C67.1573 51.0904 66.7217 50.9815 66.1771 50.9815C65.6325 50.9815 65.1968 51.0904 64.8701 51.1994C64.4344 51.4172 64.2166 51.635 64.2166 52.0707V52.2885C64.2166 52.7242 64.4344 53.0509 64.8701 53.1599C65.1968 53.3777 65.6325 53.3777 66.1771 53.3777Z" fill="#8429AA"></path><path d="M78.7026 55.1204H76.3064L74.3459 53.5955H72.8211V55.1204H70.9695V49.2388H76.3064C76.6332 49.2388 76.9599 49.3478 77.2867 49.5656C77.6134 49.7834 77.8313 50.0013 78.0491 50.328C78.2669 50.6548 78.3759 50.9815 78.3759 51.4172C78.3759 51.9618 78.2669 52.3974 77.9402 52.8331C77.6134 53.2688 77.1778 53.4866 76.7421 53.5955L78.7026 55.1204ZM76.0886 51.8529C76.1975 51.8529 76.3064 51.8529 76.4153 51.7439C76.5243 51.635 76.5243 51.5261 76.5243 51.4172C76.5243 51.3083 76.5243 51.1994 76.4153 51.0904C76.3064 50.9815 76.1975 50.9815 76.0886 50.9815H72.93V51.8529H76.0886Z" fill="#8429AA"></path><path d="M86.0001 55.1204H79.574V49.2388H86.0001V50.8726H81.4256V51.5261H85.7823V52.942H81.4256V53.5955H86.0001V55.1204Z" fill="#8429AA"></path><path d="M44.0669 7.63247C43.7401 6.76113 42.9777 6.21655 42.1063 6.21655C41.7796 6.21655 41.5618 6.32546 41.235 6.32546C40.6904 6.5433 40.2548 6.97897 40.0369 7.52355C39.8191 8.06814 39.8191 8.61272 40.0369 9.15731L29.5809 15.2567V27.2376C28.4917 27.3465 27.6204 28.3267 27.6204 29.4159C27.6204 30.614 28.6006 31.5943 29.7987 31.5943C30.9968 31.5943 31.977 30.614 31.977 29.4159C31.977 28.3267 31.1057 27.3465 30.0165 27.2376V15.4745L40.2548 9.59298C40.6904 10.2465 41.3439 10.5732 42.1063 10.5732C42.4331 10.5732 42.6509 10.4643 42.9777 10.4643C43.5223 10.2465 43.9579 9.81081 44.1758 9.26623C44.2847 8.72164 44.2847 8.17705 44.0669 7.63247ZM31.3235 29.4159C31.3235 30.2872 30.67 30.9408 29.7987 30.9408C28.9274 30.9408 28.2739 30.2872 28.2739 29.4159C28.2739 28.5446 28.9274 27.8911 29.7987 27.8911C30.5611 27.8911 31.3235 28.5446 31.3235 29.4159ZM43.6312 9.04839C43.4134 9.48406 43.0866 9.81081 42.7599 9.91973C42.542 10.0286 42.3242 10.0286 42.1063 10.0286C41.4528 10.0286 40.7993 9.59298 40.5815 8.93948C40.3637 8.50381 40.3637 8.06814 40.5815 7.63247C40.7993 7.1968 41.1261 6.87005 41.4528 6.76113C41.6707 6.65221 41.8885 6.65221 42.1063 6.65221C42.7599 6.65221 43.4134 7.08788 43.6312 7.74139C43.849 8.17705 43.849 8.72164 43.6312 9.04839Z" fill="url(#paint0_linear)"></path><path d="M49.4038 39.2185C49.1859 38.6739 48.7503 38.2382 48.2057 38.0204C47.9878 37.9114 47.6611 37.9114 47.3343 37.9114C46.5719 37.9114 45.9184 38.3471 45.4828 38.8917L35.3535 33.0102V21.2471C36.4426 21.1382 37.314 20.1579 37.314 19.0688C37.314 17.8707 36.3337 16.8904 35.1356 16.8904C33.9375 16.8904 32.9573 17.8707 32.9573 19.0688C32.9573 20.1579 33.8286 21.1382 34.9178 21.2471V33.228L45.3738 39.3274C44.9382 40.4165 45.4828 41.6146 46.5719 42.1592C46.7898 42.2681 47.1165 42.2681 47.4433 42.2681C48.3146 42.2681 49.077 41.7236 49.5127 40.9611C49.6216 40.4165 49.6216 39.763 49.4038 39.2185ZM33.3929 19.0688C33.3929 18.0885 34.1554 17.3261 35.1356 17.3261C36.1159 17.3261 36.8783 18.0885 36.8783 19.0688C36.8783 20.049 36.1159 20.8114 35.1356 20.8114C34.1554 20.8114 33.3929 20.049 33.3929 19.0688ZM48.8592 40.6344C48.6414 41.179 48.0968 41.6146 47.4433 41.6146C47.2254 41.6146 47.0076 41.6146 46.8987 41.5057C46.1363 41.179 45.7006 40.3076 46.0273 39.5452C46.2452 39.0006 46.7898 38.565 47.4433 38.565C47.6611 38.565 47.8789 38.5649 47.9878 38.6739C48.3146 38.7828 48.6414 39.1095 48.8592 39.5452C48.9681 39.872 48.9681 40.3076 48.8592 40.6344Z" fill="url(#paint1_linear)"></path><path d="M59.3152 13.6229C59.3152 12.4248 58.335 11.4446 57.1369 11.4446C55.9388 11.4446 54.9585 12.4248 54.9585 13.6229C54.9585 14.7121 55.8299 15.6924 56.919 15.8013V27.5643L46.6808 33.4459C46.2452 32.7924 45.5917 32.4656 44.8292 32.4656C44.5025 32.4656 44.2847 32.5745 43.9579 32.5745C43.4133 32.7924 42.9776 33.228 42.7598 33.7726C42.542 34.3172 42.542 34.8618 42.7598 35.4064C43.0866 36.2777 43.849 36.7134 44.8292 36.7134C45.156 36.7134 45.3738 36.6045 45.7006 36.6045C46.7897 36.1688 47.3343 34.9707 46.8987 33.7726L57.2458 27.7822L57.3547 27.6732V15.6923C58.4439 15.6923 59.3152 14.7121 59.3152 13.6229ZM45.4827 36.1688C45.2649 36.2777 45.0471 36.2777 44.8292 36.2777C44.1757 36.2777 43.5222 35.842 43.3044 35.1885C43.0866 34.7529 43.0866 34.3172 43.3044 33.8815C43.5222 33.4459 43.849 33.1191 44.1757 33.0102C44.3936 32.9013 44.6114 32.9013 44.8292 32.9013C45.4827 32.9013 46.1362 33.3369 46.3541 33.9904C46.7897 34.8618 46.3541 35.842 45.4827 36.1688ZM57.1369 15.1478C56.2655 15.1478 55.612 14.4943 55.612 13.6229C55.612 12.7516 56.2655 12.0981 57.1369 12.0981C58.0082 12.0981 58.6617 12.7516 58.6617 13.6229C58.6617 14.4943 58.0082 15.1478 57.1369 15.1478Z" fill="url(#paint2_linear)"></path><path d="M52.0178 21.7917V9.81081L41.5618 3.71145C41.9974 2.62228 41.4528 1.42419 40.3637 0.8796C40.0369 0.8796 39.8191 0.770683 39.4923 0.770683C38.621 0.770683 37.8586 1.31527 37.4229 2.07769C37.2051 2.62228 37.2051 3.16686 37.4229 3.71145C37.6407 4.25603 38.0764 4.6917 38.621 4.90954C38.9477 5.12737 39.1656 5.12737 39.4923 5.12737C40.2547 5.12737 40.9082 4.6917 41.3439 4.14712L51.5821 10.0286V21.7917C50.493 21.9006 49.6216 22.8809 49.6216 23.97C49.6216 25.1681 50.6019 26.1484 51.8 26.1484C52.9981 26.1484 53.9783 25.1681 53.9783 23.97C53.9783 22.772 53.107 21.9006 52.0178 21.7917ZM39.4923 4.47387C39.2745 4.47387 39.0567 4.47387 38.9477 4.36495C38.621 4.25603 38.2942 3.92928 38.0764 3.49361C37.9675 3.16686 37.9675 2.73119 38.0764 2.29552C38.2942 1.75094 38.8388 1.31527 39.4923 1.31527C39.7102 1.31527 39.928 1.31527 40.0369 1.42419C40.7993 1.85986 41.235 2.73119 40.9082 3.49361C40.6904 4.14712 40.1458 4.47387 39.4923 4.47387ZM51.8 25.6038C50.8197 25.6038 50.0573 24.8414 50.0573 23.8611C50.0573 22.8809 50.8197 22.1185 51.8 22.1185C52.7802 22.1185 53.5426 22.8809 53.5426 23.8611C53.5426 24.8414 52.7802 25.6038 51.8 25.6038Z" fill="url(#paint3_linear)"></path><path d="M45.9183 26.693C45.7005 26.2573 45.1559 25.8217 44.6113 25.8217V16.0191C44.7202 16.0191 44.8292 16.0191 44.9381 15.9102C45.3738 15.8013 45.5916 15.4745 45.8094 15.0388C45.9183 14.6032 46.0273 14.2764 45.8094 13.8408C45.5916 13.2962 45.047 12.8605 44.3935 12.8605C44.1757 12.8605 43.9578 12.8605 43.8489 12.9694C43.4132 13.0783 43.1954 13.4051 42.9776 13.8408C42.8687 14.2764 42.7597 14.6032 42.9776 15.0388C43.1954 15.5834 43.6311 15.9102 44.1757 16.0191V25.8217C44.0667 25.8217 43.9578 25.8217 43.8489 25.9306C43.0865 26.2573 42.6508 27.1287 42.9776 28C43.1954 28.5446 43.74 28.9802 44.3935 28.9802C44.6113 28.9802 44.8292 28.9802 44.9381 28.8713C45.3738 28.7624 45.5916 28.4357 45.8094 28C46.0273 27.5643 46.0273 27.1287 45.9183 26.693Z" fill="url(#paint4_linear)"></path><defs><linearGradient id="paint0_linear" x1="35.9132" y1="1.92717" x2="35.9132" y2="46.6611" gradientUnits="userSpaceOnUse"><stop stop-color="#FF00FF"></stop><stop offset="1" stop-color="#2F00C0"></stop></linearGradient><linearGradient id="paint1_linear" x1="41.2473" y1="1.92727" x2="41.2473" y2="46.661" gradientUnits="userSpaceOnUse"><stop stop-color="#FF00FF"></stop><stop offset="1" stop-color="#2F00C0"></stop></linearGradient><linearGradient id="paint2_linear" x1="50.9729" y1="1.92707" x2="50.9729" y2="46.6611" gradientUnits="userSpaceOnUse"><stop stop-color="#FF00FF"></stop><stop offset="1" stop-color="#2F00C0"></stop></linearGradient><linearGradient id="paint3_linear" x1="45.6388" y1="1.92728" x2="45.6388" y2="46.6611" gradientUnits="userSpaceOnUse"><stop stop-color="#FF00FF"></stop><stop offset="1" stop-color="#2F00C0"></stop></linearGradient><linearGradient id="paint4_linear" x1="44.4093" y1="1.9274" x2="44.4093" y2="46.6607" gradientUnits="userSpaceOnUse"><stop stop-color="#FF00FF"></stop><stop offset="1" stop-color="#2F00C0"></stop></linearGradient></defs></svg>