<svg xmlns="http://www.w3.org/2000/svg" width="63" height="60" viewBox="0 0 63 60" fill="none"><path d="M4.4 57.6H0V50.1H1.7V56.2H4.5V57.6H4.4Z" fill="#313231"></path><path d="M10.0999 57.6H8.5999V56.8C8.1999 57.4 7.6999 57.7 6.9999 57.7C6.4999 57.7 6.0999 57.6 5.7999 57.3C5.4999 57 5.3999 56.6 5.3999 56.1C5.3999 55.1 5.9999 54.5 7.1999 54.3L8.5999 54.1C8.5999 53.5 8.2999 53.2 7.6999 53.2C7.0999 53.2 6.4999 53.4 5.8999 53.8V52.6C6.0999 52.5 6.3999 52.4 6.7999 52.3C7.1999 52.2 7.5999 52.2 7.8999 52.2C9.3999 52.2 10.1999 53 10.1999 54.5V57.6H10.0999ZM8.5999 55.4V55L7.5999 55.1C7.0999 55.2 6.7999 55.4 6.7999 55.8C6.7999 56 6.8999 56.1 6.9999 56.3C7.0999 56.4 7.2999 56.5 7.4999 56.5C7.7999 56.5 8.0999 56.4 8.2999 56.2C8.4999 56 8.5999 55.7 8.5999 55.4Z" fill="#313231"></path><path d="M13.4999 56.9V60H11.8999V52.2H13.4999V53C13.8999 52.4 14.4999 52.1 15.1999 52.1C15.8999 52.1 16.3999 52.3 16.7999 52.8C17.1999 53.3 17.3999 53.9 17.3999 54.7C17.3999 55.6 17.1999 56.3 16.6999 56.8C16.2999 57.3 15.6999 57.6 14.9999 57.6C14.2999 57.7 13.8999 57.4 13.4999 56.9ZM13.4999 54.8V55.2C13.4999 55.6 13.5999 55.9 13.7999 56.1C13.9999 56.3 14.1999 56.4 14.5999 56.4C14.9999 56.4 15.2999 56.3 15.4999 56C15.6999 55.7 15.7999 55.3 15.7999 54.8C15.7999 53.9 15.3999 53.4 14.6999 53.4C14.3999 53.4 14.0999 53.5 13.8999 53.8C13.5999 54 13.4999 54.3 13.4999 54.8Z" fill="#313231"></path><path d="M22.0999 57.5C21.8999 57.6 21.4999 57.7 20.9999 57.7C19.7999 57.7 19.2999 57.1 19.2999 55.9V53.5H18.3999V52.3H19.2999V51.2L20.8999 50.7V52.3H22.0999V53.5H20.8999V55.7C20.8999 56.3 21.0999 56.5 21.5999 56.5C21.7999 56.5 21.9999 56.4 22.0999 56.3V57.5Z" fill="#313231"></path><path d="M25.9 57.7C25 57.7 24.3 57.5 23.8 57C23.3 56.5 23 55.8 23 55C23 54.1 23.3 53.4 23.8 52.9C24.3 52.4 25 52.2 25.9 52.2C26.8 52.2 27.5 52.4 28 52.9C28.5 53.4 28.8 54.1 28.8 54.9C28.8 55.8 28.5 56.5 28 57C27.6 57.4 26.8 57.7 25.9 57.7ZM26 53.4C25.6 53.4 25.3 53.5 25.1 53.8C24.9 54.1 24.8 54.4 24.8 54.9C24.8 55.9 25.2 56.4 26 56.4C26.8 56.4 27.2 55.9 27.2 54.8C27.2 53.9 26.8 53.4 26 53.4Z" fill="#313231"></path><path d="M31.9999 56.9V60H30.3999V52.2H31.9999V53C32.3999 52.4 32.9999 52.1 33.6999 52.1C34.3999 52.1 34.8999 52.3 35.2999 52.8C35.6999 53.3 35.8999 53.9 35.8999 54.7C35.8999 55.6 35.6999 56.3 35.1999 56.8C34.7999 57.3 34.1999 57.6 33.4999 57.6C32.7999 57.7 32.2999 57.4 31.9999 56.9ZM31.9999 54.8V55.2C31.9999 55.6 32.0999 55.9 32.2999 56.1C32.4999 56.3 32.6999 56.4 33.0999 56.4C33.4999 56.4 33.7999 56.3 33.9999 56C34.1999 55.7 34.2999 55.3 34.2999 54.8C34.2999 53.9 33.8999 53.4 33.1999 53.4C32.8999 53.4 32.5999 53.5 32.3999 53.8C32.0999 54 31.9999 54.3 31.9999 54.8Z" fill="#313231"></path><path d="M42.9001 57.3C42.4001 57.6 41.6001 57.7 40.8001 57.7C39.7001 57.7 38.8001 57.4 38.1001 56.7C37.4001 56 37.1001 55.1 37.1001 54C37.1001 52.8 37.5001 51.8 38.2001 51.1C38.9001 50.4 39.9001 50 41.1001 50C41.8001 50 42.4001 50.1 42.9001 50.3V51.9C42.4001 51.6 41.8001 51.5 41.2001 51.5C40.5001 51.5 39.9001 51.7 39.5001 52.2C39.1001 52.6 38.9001 53.2 38.9001 54C38.9001 54.7 39.1001 55.3 39.5001 55.7C39.9001 56.1 40.5001 56.3 41.1001 56.3C41.8001 56.3 42.4001 56.1 42.9001 55.8V57.3Z" fill="#313231"></path><path d="M45.9999 55.7C45.9999 55.9 46.0999 56.1 46.1999 56.2C46.2999 56.3 46.4999 56.4 46.5999 56.4C46.6999 56.4 46.7999 56.4 46.8999 56.4C46.9999 56.4 47.0999 56.4 47.1999 56.3V57.5C46.9999 57.6 46.7999 57.6 46.5999 57.6C46.3999 57.6 46.1999 57.6 45.8999 57.6C45.6999 57.6 45.4999 57.6 45.2999 57.5C45.0999 57.4 44.9999 57.3 44.7999 57.2C44.6999 57.1 44.5999 56.9 44.4999 56.7C44.3999 56.5 44.3999 56.3 44.3999 56V49.6H45.9999V55.7Z" fill="#313231"></path><path d="M49.1001 51.4C48.8001 51.4 48.6001 51.3 48.4001 51.2C48.2001 51 48.1001 50.8 48.1001 50.6C48.1001 50.4 48.2001 50.2 48.4001 50C48.6001 49.8 48.8001 49.8 49.1001 49.8C49.4001 49.8 49.6001 49.9 49.8001 50C50.0001 50.2 50.1001 50.4 50.1001 50.6C50.1001 50.8 50.0001 51.1 49.8001 51.2C49.6001 51.3 49.3001 51.4 49.1001 51.4ZM49.9001 55.7C49.9001 55.9 50.0001 56.1 50.1001 56.2C50.2001 56.3 50.4001 56.4 50.5001 56.4C50.6001 56.4 50.7001 56.4 50.8001 56.4C50.9001 56.4 51.0001 56.4 51.1001 56.3V57.5C50.9001 57.6 50.7001 57.6 50.5001 57.6C50.3001 57.6 50.1001 57.6 49.8001 57.6C49.6001 57.6 49.4001 57.6 49.2001 57.5C49.0001 57.4 48.9001 57.3 48.7001 57.2C48.6001 57.1 48.5001 56.9 48.4001 56.7C48.3001 56.5 48.3001 56.3 48.3001 56V52.1H49.9001V55.7Z" fill="#313231"></path><path d="M56.0999 57.4C55.6999 57.6 55.2 57.7 54.5 57.7C53.7 57.7 53 57.5 52.5 57C52 56.5 51.7 55.9 51.7 55.1C51.7 54.2 52 53.5 52.5 53C53 52.5 53.8 52.2 54.7 52.2C55.3 52.2 55.7999 52.3 56.0999 52.4V53.8C55.7999 53.5 55.4 53.4 55 53.4C54.5 53.4 54.2 53.5 53.9 53.8C53.6 54.1 53.5 54.5 53.5 54.9C53.5 55.4 53.6 55.7 53.9 56C54.2 56.3 54.5 56.4 55 56.4C55.4 56.4 55.8 56.3 56.2 56V57.4H56.0999Z" fill="#313231"></path><path d="M63 57.6H61L59.2999 55V57.6H57.7V49.7H59.2999V54.7L60.9 52.2H62.7999L60.9 54.7L63 57.6Z" fill="#313231"></path><path fill-rule="evenodd" clip-rule="evenodd" d="M16.6 34.4C15.9 36.4 8.00001 33.7 11.6 30.9C14.6 28.5 17.2 32.5 16.6 34.4ZM28.9 4.1C29.7 5.4 33.8 2.9 31.2 1.3C29.1 3.57628e-07 28.2 2.9 28.9 4.1ZM34.9 0.5C34.5 1.1 36.5 2.5 36.7 1C36.8 -0.3 35.3 -0.0999996 34.9 0.5ZM27.2 46.1C26.5 47.1 30.4 49.9 30.5 47.3C30.7 45 27.9 45.1 27.2 46.1ZM6.60001 28.1C6.10001 28.7 8.60001 30.5 8.70001 28.8C8.80001 27.4 7.00001 27.5 6.60001 28.1ZM2.70001 13.2C2.00001 14.3 5.90001 17 6.00001 14.4C6.10001 12.2 3.40001 12.3 2.70001 13.2ZM44.9 43.8C44.5 44.4 46.5 45.8 46.7 44.3C46.9 43 45.4 43.2 44.9 43.8ZM23 1.1C22.6 1.7 25 3.5 25.1 1.8C25.2 0.4 23.4 0.5 23 1.1ZM56.2 28.4C56.2 28.4 57.5 29 56.3 29.6C52.6 30.5 48.8 31.4 45 32.3C41.7 35 40.5 40 35.7 41C32.6 41.6 31.6 42.7 29.2 43C20.8 44.3 22.2 35.7 20.3 31.3L19.9 31.2C19.4 31.1 19 30.9 18.9 30.9C18.3 30.5 17.8 29.8 17.7 29.1C17.6 28.7 17.5 27.8 17.5 26.7V25.8C15.3 21.8 11.1 20.1 10.5 15.5C9.90001 10.8 13.5 9.5 17.9 9.1C18.3 8.4 19 7.9 20.1 8L28.8 9.3C29 9.3 29.2 9.2 29.4 9.2C33.3 8.1 38.9 4.4 42.7 6.1C46.3 7.7 47.4 10.9 47 14.4C49.2 14.7 51.1 15.4 52.4 16.5C56.4 20.1 53.2 23.8 49.4 27.3L56.2 28.4ZM42.6 27.3L54.1 29L34.2 33.3L24.4 30.9L42.6 27.3ZM40.4 12.5L21.3 9.7C20.4 9.6 19.6 10.2 19.6 11.1C19.6 13.7 19.6 16.3 19.6 18.9C19.6 21.5 19.6 24.2 19.6 26.8C19.6 26.8 19.6 26.8 19.6 26.9C19.6 26.9 19.6 26.9 19.6 27C19.6 27 19.6 27 19.6 27.1C19.6 27.1 19.6 27.1 19.6 27.2C19.6 27.2 19.6 27.2 19.6 27.3C19.6 27.3 19.6 27.3 19.6 27.4C19.6 27.4 19.6 27.4 19.6 27.5C19.6 27.5 19.6 27.5 19.6 27.6C19.6 27.6 19.6 27.6 19.6 27.7C19.6 27.7 19.6 27.7 19.6 27.8C19.6 27.8 19.6 27.8 19.6 27.9C19.6 27.9 19.6 27.9 19.6 28C19.6 28 19.6 28 19.6 28.1C19.6 28.1 19.6 28.1 19.7 28.1C19.7 28.1 19.7 28.1 19.8 28.1C19.8 28.1 19.8 28.1 19.9 28.1C19.9 28.1 19.9 28.1 20 28.1C20 28.1 20 28.1 20.1 28.1C20.1 28.1 20.1 28.1 20.2 28.1C20.2 28.1 20.2 28.1 20.3 28.1C20.3 28.1 20.3 28.1 20.4 28.1C20.4 28.1 20.4 28.1 20.5 28.1C20.5 28.1 20.5 28.1 20.6 28.1C20.6 28.1 20.6 28.1 20.7 28.1C20.7 28.1 20.7 28.1 20.8 28.1C20.8 28.1 20.8 28.1 20.9 28.1C20.9 28.1 20.9 28.1 21 28.1C21 28.1 21 28.1 21.1 28.1C27.5 27.4 34 26.6 40.4 25.9C40.7 25.6 40.8 25.3 40.8 24.8C40.8 23.6 40.7 22.3 40.7 21.1L40.6 18.7L40.4 13.6C41.2 12.7 40.4 12.5 40.4 12.5ZM57.2 30.1C56.7 30.7 59.2 32.5 59.3 30.8C59.4 29.4 57.6 29.5 57.2 30.1ZM48 34C47.3 35 51.2 37.8 51.3 35.2C51.5 32.9 48.7 33 48 34ZM51.6 10.5C52.2 10.7 53.4 9.8 52.6 8.9C51.6 7.8 50.9 10.3 51.6 10.5Z" fill="url(#paint0_linear)"></path><path fill-rule="evenodd" clip-rule="evenodd" d="M17.7 20.3L16.7 9.3C17.1 9.2 17.6 9.2 18 9.1L17.7 20.3ZM49.2999 27.4C49.5999 27.1 49.9 26.8 50.2 26.6H43.5L49.2999 27.4ZM20.2999 31.4C20.4999 31.8 20.6 32.2 20.7 32.6L27.9 33.5L20.2999 31.4ZM43.4 34C43.9 33.4 44.4 32.8 45 32.3L36.4 34.1L43.4 34ZM31.6 8.3C30.8 8.6 29.9999 8.9 29.2999 9.1C29.0999 9.2 28.9 9.2 28.7 9.2L39 10.7L31.6 8.3Z" fill="#A7A8AB"></path><path fill-rule="evenodd" clip-rule="evenodd" d="M40.1999 13.4C40.2999 13.5 40.2999 13.6 40.2999 13.7L40.4999 18.8L40.5999 21.2C40.5999 22.4 40.6999 23.7 40.6999 24.9L38.1999 14.9L23.3999 11L40.1999 13.4ZM33.7999 32.7L50.6999 29.1L42.5999 27.9L47.3999 29.3L33.7999 32.7ZM26.6999 30.9L32.8999 32.3L29.8999 30.9L41.4999 28L26.6999 30.9Z" fill="#E6DBEC"></path><path fill-rule="evenodd" clip-rule="evenodd" d="M32.8 18.2L31.7001 23.3L30.2001 22.1L27.9 24.8L26.8 23.8L29.2001 21.3L27.8 20.1L32.8 18.2Z" fill="#3F3E40"></path><defs><linearGradient id="paint0_linear" x1="2.59341" y1="24.1938" x2="59.2791" y2="24.1938" gradientUnits="userSpaceOnUse"><stop stop-color="#0E89F8"></stop><stop offset="1" stop-color="#00F9A3"></stop></linearGradient></defs></svg>