<svg fill="none" height="28" viewBox="0 0 176 28" width="176" xmlns="http://www.w3.org/2000/svg"><g fill="#fff"><path d="m47.1917 5.7839h-4.2952v-3.67797h-4.2952v2.49153c0 .86017-.3327 1.18644-1.2099 1.18644h-1.3914v3.6483h2.6013v7.2966c0 3.2627 1.6939 4.9237 5.0212 4.9237h3.5692v-3.6779h-2.2686c-1.5123 0-2.0266-.5043-2.0266-2.017v-6.5254h4.2952z"/><path d="m65.3762 13.3475c0-4.77547-3.5088-7.80089-8.0157-7.80089-4.8094 0-8.4694 3.35169-8.4694 8.27539 0 4.8644 3.5087 8.0678 8.4694 8.0678 3.8717 0 6.9268-2.0169 7.804-5.339h-4.144c-.5747 1.1568-1.9056 1.8687-3.5995 1.8687-2.2686 0-3.9625-1.2458-4.3255-3.7373h12.19c.0605-.4153.0907-.8898.0907-1.3347zm-8.0157-4.36021c1.9056 0 3.297.91949 3.7205 2.84741h-7.7737c.5747-1.8686 2.0871-2.84741 4.0532-2.84741z"/><path d="m75.7907 21.8898c4.2347 0 7.5923-2.5508 7.9855-6.5847h-4.3255c-.3025 1.7203-1.7846 2.8771-3.66 2.8771-2.2686 0-4.023-1.6907-4.023-4.4788 0-2.7585 1.7544-4.44916 4.023-4.44916 1.8451 0 3.3273 1.12716 3.6298 2.87716h4.3557c-.363-4.0636-3.6903-6.58479-7.925-6.58479-4.8699 0-8.4392 3.32203-8.4392 8.18639 0 4.8051 3.4785 8.1568 8.3787 8.1568z"/><path d="m96.2209 5.54661c-2.1477 0-4.0835.91949-5.2329 2.46187v-8.00848h-4.2953v21.6525h4.2953v-8.2754c0-2.5805 1.5426-3.97456 3.5995-3.97456 1.9358 0 3.1155 1.18646 3.1155 3.58896v8.661h4.295v-9.9364c0-3.94491-2.3894-6.16949-5.7771-6.16949z"/><path d="m115.155 5.54661c-2.208 0-4.204.94915-5.323 2.58051v-2.34322h-4.205v15.8686h4.295v-8.2754c0-2.5805 1.543-3.97456 3.6-3.97456 1.936 0 3.116 1.18646 3.116 3.58896v8.661h4.295v-9.9364c0-3.94491-2.39-6.16949-5.778-6.16949z"/><path d="m131.973 21.8898c4.779 0 8.348-3.3813 8.348-8.1864s-3.569-8.15679-8.348-8.15679c-4.749 0-8.319 3.35169-8.319 8.15679s3.57 8.1864 8.319 8.1864zm0-3.7076c-2.33 0-3.963-1.75-3.963-4.4788s1.633-4.44916 3.963-4.44916c2.329 0 3.992 1.72036 3.992 4.44916s-1.663 4.4788-3.992 4.4788z"/><path d="m167.652 16.7288-3.963-10.9449h-4.598l6.322 15.9873-.302.7712c-.454 1.2754-1.059 1.661-2.541 1.661h-1.785v3.7076h2.541c2.934 0 4.628-1.1568 5.656-3.8856l7.018-18.2415h-4.507z"/><path d="m150.791 21.8898c4.235 0 7.592-2.5508 7.985-6.5847h-4.325c-.303 1.7203-1.785 2.8771-3.66 2.8771-2.269 0-4.023-1.6907-4.023-4.4788 0-2.7585 1.754-4.44914 4.023-4.44914 1.845 0 3.327 1.12714 3.63 2.87714h4.355c-.363-4.06358-3.69-6.58477-7.925-6.58477-4.87 0-8.439 3.32203-8.439 8.18647 0 4.8051 3.479 8.1567 8.379 8.1567z"/></g><path d="m19.7987 1h-11.59702c-.85879 0-1.65247.42329-2.08167 1.11059l-5.798116 9.27901c-.429192.6873-.429192 1.5339 0 2.2208l5.797716 9.279c.4296.6873 1.22288 1.1106 2.08167 1.1106h11.59742c.8588 0 1.6525-.4233 2.0817-1.1106l5.7977-9.279c.4292-.6873.4292-1.5339 0-2.2208l-5.7973-9.27901c-.4296-.6873-1.2233-1.11059-2.0821-1.11059zm-.1073 20.6077h-11.38242l-5.69123-9.1075 1.31893-2.1109 4.82078 7.3534c.39061.5959 1.08986.9598 1.84374.9598h2.0005c.5031.6814 1.4226 1.0798 2.4208.8782.8588-.1734 1.5496-.8176 1.7305-1.6126.313-1.3761-.815-2.5884-2.2493-2.5884-.7908 0-1.4877.3691-1.902.9301-1.0903 0-2.1009-.5261-2.66557-1.3876l-4.52179-6.8974 2.89464-4.63208h11.38242l5.6912 9.10788-1.3603 2.1769-4.5551-7.21449c-.3862-.61192-1.0951-.98806-1.8619-.98806h-2.0627c-.5032-.68135-1.4226-1.07976-2.4209-.87814-.8588.1734-1.5496.81799-1.7304 1.61296-.3131 1.37608.815 2.58803 2.2492 2.58803.7909 0 1.4877-.36908 1.9021-.93013h.0241c1.1083 0 2.1335.54397 2.6917 1.42843l4.2726 6.7675z" fill="#f02757"/></svg>
